<svg xmlns="http://www.w3.org/2000/svg" viewBox="0 0 600 500">
  <!-- Background elements -->
  <defs>
    <linearGradient id="grad1" x1="0%" y1="0%" x2="100%" y2="100%">
      <stop offset="0%" style="stop-color:#e6fcfc;stop-opacity:1" />
      <stop offset="100%" style="stop-color:#e6f6fa;stop-opacity:1" />
    </linearGradient>
    <clipPath id="screenClip">
      <rect x="193" y="145" width="214" height="128" rx="2" ry="2" />
    </clipPath>
  </defs>

  <!-- Abstract background shape -->
  <path d="M70,450 Q200,420 350,450 T600,430 V500 H0 V470 Z" fill="#008080" fill-opacity="0.1" />

  <!-- Main illustration - Dashboard/Login concept -->
  <g transform="translate(150, 100)">
    <!-- Device frame -->
    <rect x="150" y="100" width="300" height="200" rx="10" ry="10" fill="#ffffff" stroke="#e0e0e0" stroke-width="2"/>
    <rect x="165" y="115" width="270" height="170" rx="5" ry="5" fill="#f5f5f5" stroke="#e0e0e0" stroke-width="1"/>
    
    <!-- Screen content -->
    <rect x="193" y="145" width="214" height="128" rx="2" ry="2" fill="#ffffff" stroke="#e0e0e0" stroke-width="1"/>
    
    <!-- UI elements in screen -->
    <g clip-path="url(#screenClip)">
      <!-- Login form representation -->
      <rect x="203" y="155" width="95" height="108" fill="#008080" fill-opacity="0.15" rx="2" ry="2"/>
      <rect x="308" y="155" width="90" height="108" fill="#ffffff" rx="2" ry="2"/>
      
      <!-- Form elements -->
      <rect x="318" y="165" width="70" height="12" fill="#e0e0e0" rx="2" ry="2"/>
      <rect x="318" y="187" width="70" height="8" fill="#f0f0f0" rx="2" ry="2"/>
      <rect x="318" y="205" width="70" height="8" fill="#f0f0f0" rx="2" ry="2"/>
      <rect x="318" y="230" width="70" height="10" fill="#008080" rx="5" ry="5"/>
      <rect x="318" y="250" width="40" height="6" fill="#e0e0e0" rx="2" ry="2"/>
    </g>
    
    <!-- Key/Lock animation element -->
    <circle cx="240" cy="205" r="22" fill="#008080" fill-opacity="0.2"/>
    <g transform="translate(225, 193)">
      <circle cx="15" cy="7" r="7" fill="#008080"/>
      <rect x="13" y="14" width="4" height="14" fill="#008080"/>
      <rect x="9" y="17" width="12" height="3" fill="#008080"/>
      <rect x="9" y="23" width="12" height="3" fill="#008080"/>
    </g>
  </g>

  <!-- Decorative elements -->
  <circle cx="450" cy="80" r="15" fill="#008080" fill-opacity="0.2"/>
  <circle cx="100" cy="150" r="20" fill="#008080" fill-opacity="0.15"/>
  <circle cx="500" cy="350" r="25" fill="#008080" fill-opacity="0.15"/>
  
  <!-- Abstract line patterns -->
  <line x1="80" y1="200" x2="120" y2="200" stroke="#008080" stroke-width="2" stroke-opacity="0.3"/>
  <line x1="90" y1="210" x2="110" y2="210" stroke="#008080" stroke-width="2" stroke-opacity="0.3"/>
  <line x1="100" y1="220" x2="100" y2="220" stroke="#008080" stroke-width="2" stroke-opacity="0.3"/>
  
  <line x1="480" y1="120" x2="520" y2="120" stroke="#008080" stroke-width="2" stroke-opacity="0.3"/>
  <line x1="490" y1="130" x2="510" y2="130" stroke="#008080" stroke-width="2" stroke-opacity="0.3"/>
  <line x1="500" y1="140" x2="500" y2="140" stroke="#008080" stroke-width="2" stroke-opacity="0.3"/>
</svg>