<svg xmlns="http://www.w3.org/2000/svg" xmlns:xlink="http://www.w3.org/1999/xlink" width="1472" zoomAndPan="magnify" viewBox="0 0 1104 1103.999945" height="1472" preserveAspectRatio="xMidYMid meet" version="1.0"><defs><clipPath id="0822c1dd51"><path d="M 45.453125 45.453125 L 1058.546875 45.453125 L 1058.546875 1058.546875 L 45.453125 1058.546875 Z M 45.453125 45.453125 " clip-rule="nonzero"/></clipPath><clipPath id="ec332d427b"><path d="M 120.453125 45.453125 L 983.546875 45.453125 C 1003.4375 45.453125 1022.515625 53.355469 1036.578125 67.421875 C 1050.644531 81.484375 1058.546875 100.5625 1058.546875 120.453125 L 1058.546875 983.546875 C 1058.546875 1003.4375 1050.644531 1022.515625 1036.578125 1036.578125 C 1022.515625 1050.644531 1003.4375 1058.546875 983.546875 1058.546875 L 120.453125 1058.546875 C 100.5625 1058.546875 81.484375 1050.644531 67.421875 1036.578125 C 53.355469 1022.515625 45.453125 1003.4375 45.453125 983.546875 L 45.453125 120.453125 C 45.453125 100.5625 53.355469 81.484375 67.421875 67.421875 C 81.484375 53.355469 100.5625 45.453125 120.453125 45.453125 Z M 120.453125 45.453125 " clip-rule="nonzero"/></clipPath><clipPath id="6d279fa4ee"><path d="M 240.238281 348 L 335 348 L 335 443 L 240.238281 443 Z M 240.238281 348 " clip-rule="nonzero"/></clipPath></defs><g clip-path="url(#0822c1dd51)"><g clip-path="url(#ec332d427b)"><path fill="#0d9488" d="M 45.453125 45.453125 L 1058.546875 45.453125 L 1058.546875 1058.546875 L 45.453125 1058.546875 Z M 45.453125 45.453125 " fill-opacity="1" fill-rule="nonzero"/></g></g><path fill="#ffffff" d="M 544.167969 522.980469 C 537.207031 530.519531 526.1875 531.679688 518.066406 524.71875 C 510.527344 518.339844 509.367188 506.738281 515.746094 499.199219 L 693.234375 288.652344 C 699.613281 280.53125 711.214844 279.949219 719.335938 286.332031 C 726.875 292.710938 728.035156 304.3125 721.074219 311.851562 Z M 544.167969 522.980469 " fill-opacity="1" fill-rule="nonzero"/><path fill="#ffffff" d="M 307.519531 435.398438 C 299.980469 428.4375 299.980469 416.835938 306.9375 409.875 C 313.898438 402.335938 325.5 402.335938 333.039062 409.296875 L 436.285156 509.640625 C 443.824219 516.601562 443.824219 528.199219 436.863281 535.742188 C 429.902344 542.699219 418.304688 543.28125 410.761719 536.320312 Z M 307.519531 435.398438 " fill-opacity="1" fill-rule="nonzero"/><path fill="#ffffff" d="M 537.207031 661.023438 C 529.667969 654.066406 528.507812 642.464844 535.46875 634.925781 C 541.847656 627.382812 553.449219 626.804688 560.988281 633.765625 L 752.976562 803.710938 C 760.515625 810.671875 761.675781 822.269531 754.714844 829.8125 C 748.335938 837.351562 736.734375 837.933594 729.195312 831.550781 Z M 537.207031 661.023438 " fill-opacity="1" fill-rule="nonzero"/><path fill="#ffffff" d="M 418.882812 647.105469 C 422.945312 638.40625 433.964844 634.34375 443.246094 638.984375 C 451.945312 643.042969 456.003906 654.066406 451.363281 663.34375 L 373.640625 824.011719 C 369.582031 832.710938 358.5625 836.773438 349.28125 832.132812 C 340.582031 828.070312 336.519531 817.050781 341.160156 807.769531 Z M 418.882812 647.105469 " fill-opacity="1" fill-rule="nonzero"/><g clip-path="url(#6d279fa4ee)"><path fill="#ffffff" d="M 334.199219 395.957031 C 334.199219 397.496094 334.125 399.027344 333.972656 400.558594 C 333.824219 402.089844 333.597656 403.613281 333.296875 405.121094 C 332.996094 406.628906 332.625 408.121094 332.175781 409.59375 C 331.730469 411.066406 331.210938 412.511719 330.625 413.933594 C 330.035156 415.355469 329.378906 416.746094 328.652344 418.101562 C 327.925781 419.460938 327.136719 420.777344 326.28125 422.058594 C 325.425781 423.335938 324.511719 424.570312 323.535156 425.761719 C 322.558594 426.949219 321.527344 428.089844 320.441406 429.175781 C 319.351562 430.265625 318.210938 431.296875 317.023438 432.273438 C 315.832031 433.25 314.597656 434.164062 313.320312 435.019531 C 312.039062 435.875 310.722656 436.664062 309.367188 437.390625 C 308.007812 438.113281 306.617188 438.773438 305.199219 439.359375 C 303.777344 439.949219 302.328125 440.46875 300.855469 440.914062 C 299.382812 441.359375 297.894531 441.734375 296.382812 442.035156 C 294.875 442.335938 293.355469 442.558594 291.824219 442.710938 C 290.292969 442.863281 288.757812 442.9375 287.21875 442.9375 C 285.679688 442.9375 284.144531 442.863281 282.613281 442.710938 C 281.082031 442.558594 279.5625 442.335938 278.050781 442.035156 C 276.542969 441.734375 275.054688 441.359375 273.582031 440.914062 C 272.109375 440.46875 270.660156 439.949219 269.238281 439.359375 C 267.816406 438.773438 266.429688 438.113281 265.070312 437.390625 C 263.714844 436.664062 262.394531 435.875 261.117188 435.019531 C 259.835938 434.164062 258.601562 433.25 257.414062 432.273438 C 256.222656 431.296875 255.085938 430.265625 253.996094 429.175781 C 252.910156 428.089844 251.878906 426.949219 250.902344 425.761719 C 249.925781 424.570312 249.007812 423.335938 248.15625 422.058594 C 247.300781 420.777344 246.507812 419.460938 245.785156 418.101562 C 245.058594 416.746094 244.402344 415.355469 243.8125 413.933594 C 243.222656 412.511719 242.707031 411.066406 242.257812 409.59375 C 241.8125 408.121094 241.441406 406.628906 241.140625 405.121094 C 240.839844 403.613281 240.613281 402.089844 240.460938 400.558594 C 240.3125 399.027344 240.238281 397.496094 240.238281 395.957031 C 240.238281 394.417969 240.3125 392.882812 240.460938 391.351562 C 240.613281 389.820312 240.839844 388.300781 241.140625 386.789062 C 241.441406 385.28125 241.8125 383.789062 242.257812 382.316406 C 242.707031 380.84375 243.222656 379.398438 243.8125 377.976562 C 244.402344 376.554688 245.058594 375.164062 245.785156 373.808594 C 246.507812 372.453125 247.300781 371.132812 248.15625 369.855469 C 249.007812 368.574219 249.925781 367.339844 250.902344 366.152344 C 251.878906 364.960938 252.910156 363.824219 253.996094 362.734375 C 255.085938 361.644531 256.222656 360.613281 257.414062 359.636719 C 258.601562 358.660156 259.835938 357.746094 261.117188 356.890625 C 262.394531 356.035156 263.714844 355.246094 265.070312 354.519531 C 266.429688 353.796875 267.816406 353.140625 269.238281 352.550781 C 270.660156 351.960938 272.109375 351.445312 273.582031 350.996094 C 275.054688 350.550781 276.542969 350.175781 278.050781 349.875 C 279.5625 349.578125 281.082031 349.351562 282.613281 349.199219 C 284.144531 349.050781 285.679688 348.972656 287.21875 348.972656 C 288.757812 348.972656 290.292969 349.050781 291.824219 349.199219 C 293.355469 349.351562 294.875 349.578125 296.382812 349.875 C 297.894531 350.175781 299.382812 350.550781 300.855469 350.996094 C 302.328125 351.445312 303.777344 351.960938 305.199219 352.550781 C 306.617188 353.140625 308.007812 353.796875 309.367188 354.519531 C 310.722656 355.246094 312.039062 356.035156 313.320312 356.890625 C 314.597656 357.746094 315.832031 358.660156 317.023438 359.636719 C 318.210938 360.613281 319.351562 361.644531 320.441406 362.734375 C 321.527344 363.824219 322.558594 364.960938 323.535156 366.152344 C 324.511719 367.339844 325.425781 368.574219 326.28125 369.855469 C 327.136719 371.132812 327.925781 372.453125 328.652344 373.808594 C 329.378906 375.164062 330.035156 376.554688 330.625 377.976562 C 331.210938 379.398438 331.730469 380.84375 332.175781 382.316406 C 332.625 383.789062 332.996094 385.28125 333.296875 386.789062 C 333.597656 388.300781 333.824219 389.820312 333.972656 391.351562 C 334.125 392.882812 334.199219 394.417969 334.199219 395.957031 Z M 334.199219 395.957031 " fill-opacity="1" fill-rule="nonzero"/></g><path fill="#ffffff" d="M 817.941406 239.992188 C 818.050781 241.132812 818.132812 242.277344 818.1875 243.421875 C 818.242188 244.566406 818.269531 245.710938 818.265625 246.859375 C 818.265625 248.003906 818.234375 249.152344 818.175781 250.296875 C 818.117188 251.441406 818.03125 252.582031 817.917969 253.722656 C 817.800781 254.867188 817.660156 256.003906 817.488281 257.136719 C 817.320312 258.269531 817.121094 259.398438 816.894531 260.523438 C 816.671875 261.648438 816.417969 262.765625 816.136719 263.875 C 815.855469 264.988281 815.546875 266.09375 815.214844 267.1875 C 814.878906 268.285156 814.515625 269.375 814.128906 270.453125 C 813.742188 271.53125 813.324219 272.597656 812.886719 273.65625 C 812.445312 274.714844 811.976562 275.761719 811.488281 276.796875 C 810.996094 277.835938 810.476562 278.855469 809.933594 279.867188 C 809.390625 280.878906 808.824219 281.875 808.234375 282.855469 C 807.644531 283.839844 807.027344 284.804688 806.390625 285.757812 C 805.75 286.710938 805.089844 287.644531 804.40625 288.566406 C 803.71875 289.484375 803.011719 290.386719 802.285156 291.273438 C 801.554688 292.15625 800.804688 293.023438 800.035156 293.871094 C 799.261719 294.71875 798.46875 295.546875 797.660156 296.359375 C 796.847656 297.167969 796.015625 297.957031 795.164062 298.722656 C 794.3125 299.492188 793.445312 300.238281 792.554688 300.964844 C 791.667969 301.691406 790.761719 302.394531 789.839844 303.074219 C 788.917969 303.757812 787.980469 304.414062 787.027344 305.050781 C 786.070312 305.6875 785.101562 306.296875 784.117188 306.886719 C 783.132812 307.472656 782.136719 308.035156 781.125 308.574219 C 780.109375 309.113281 779.085938 309.625 778.050781 310.113281 C 777.011719 310.601562 775.964844 311.066406 774.902344 311.503906 C 773.84375 311.9375 772.773438 312.351562 771.691406 312.734375 C 770.613281 313.117188 769.523438 313.476562 768.425781 313.804688 C 767.328125 314.136719 766.222656 314.441406 765.109375 314.71875 C 763.996094 314.996094 762.878906 315.242188 761.753906 315.464844 C 760.628906 315.6875 759.5 315.878906 758.367188 316.046875 C 757.230469 316.210938 756.09375 316.351562 754.953125 316.460938 C 753.8125 316.570312 752.667969 316.652344 751.523438 316.707031 C 750.378906 316.761719 749.230469 316.789062 748.085938 316.785156 C 746.9375 316.785156 745.792969 316.753906 744.648438 316.695312 C 743.503906 316.636719 742.359375 316.550781 741.21875 316.4375 C 740.078125 316.320312 738.941406 316.179688 737.808594 316.007812 C 736.671875 315.839844 735.542969 315.640625 734.421875 315.414062 C 733.296875 315.191406 732.179688 314.9375 731.066406 314.65625 C 729.953125 314.375 728.851562 314.066406 727.753906 313.734375 C 726.65625 313.398438 725.570312 313.035156 724.492188 312.648438 C 723.414062 312.261719 722.34375 311.84375 721.285156 311.40625 C 720.226562 310.964844 719.179688 310.496094 718.144531 310.003906 C 717.109375 309.515625 716.085938 308.996094 715.078125 308.453125 C 714.066406 307.910156 713.070312 307.34375 712.085938 306.753906 C 711.105469 306.164062 710.136719 305.546875 709.1875 304.910156 C 708.234375 304.269531 707.296875 303.609375 706.378906 302.925781 C 705.457031 302.238281 704.554688 301.53125 703.671875 300.804688 C 702.785156 300.074219 701.917969 299.324219 701.070312 298.554688 C 700.222656 297.78125 699.394531 296.988281 698.585938 296.175781 C 697.777344 295.367188 696.988281 294.535156 696.21875 293.683594 C 695.449219 292.832031 694.703125 291.964844 693.976562 291.074219 C 693.253906 290.1875 692.550781 289.28125 691.867188 288.359375 C 691.1875 287.4375 690.527344 286.5 689.894531 285.546875 C 689.257812 284.589844 688.644531 283.621094 688.058594 282.636719 C 687.472656 281.652344 686.90625 280.65625 686.371094 279.644531 C 685.832031 278.628906 685.316406 277.605469 684.828125 276.570312 C 684.339844 275.53125 683.878906 274.484375 683.441406 273.421875 C 683.003906 272.363281 682.59375 271.292969 682.210938 270.210938 C 681.824219 269.132812 681.46875 268.042969 681.136719 266.945312 C 680.804688 265.847656 680.503906 264.742188 680.226562 263.628906 C 679.949219 262.515625 679.699219 261.398438 679.476562 260.273438 C 679.257812 259.148438 679.0625 258.019531 678.898438 256.886719 C 678.730469 255.75 678.59375 254.613281 678.480469 253.472656 C 678.371094 252.332031 678.289062 251.1875 678.234375 250.042969 C 678.179688 248.898438 678.15625 247.75 678.15625 246.605469 C 678.160156 245.457031 678.191406 244.3125 678.246094 243.167969 C 678.304688 242.023438 678.390625 240.878906 678.507812 239.738281 C 678.621094 238.597656 678.765625 237.460938 678.933594 236.328125 C 679.105469 235.191406 679.300781 234.0625 679.527344 232.941406 C 679.753906 231.816406 680.007812 230.699219 680.289062 229.585938 C 680.566406 228.472656 680.875 227.371094 681.210938 226.273438 C 681.546875 225.175781 681.90625 224.089844 682.296875 223.011719 C 682.683594 221.933594 683.097656 220.863281 683.539062 219.804688 C 683.980469 218.746094 684.445312 217.699219 684.9375 216.664062 C 685.429688 215.628906 685.945312 214.605469 686.488281 213.59375 C 687.03125 212.585938 687.597656 211.589844 688.1875 210.605469 C 688.78125 209.625 689.394531 208.65625 690.035156 207.707031 C 690.671875 206.753906 691.335938 205.816406 692.019531 204.898438 C 692.703125 203.976562 693.410156 203.074219 694.140625 202.191406 C 694.867188 201.304688 695.617188 200.4375 696.390625 199.589844 C 697.160156 198.742188 697.953125 197.914062 698.765625 197.105469 C 699.578125 196.296875 700.410156 195.507812 701.261719 194.738281 C 702.109375 193.96875 702.980469 193.222656 703.867188 192.496094 C 704.753906 191.773438 705.660156 191.070312 706.582031 190.386719 C 707.503906 189.707031 708.441406 189.046875 709.398438 188.414062 C 710.351562 187.777344 711.320312 187.164062 712.304688 186.578125 C 713.289062 185.992188 714.289062 185.425781 715.300781 184.886719 C 716.3125 184.351562 717.335938 183.835938 718.375 183.347656 C 719.410156 182.859375 720.460938 182.398438 721.519531 181.960938 C 722.582031 181.523438 723.652344 181.113281 724.730469 180.730469 C 725.8125 180.34375 726.898438 179.988281 727.996094 179.65625 C 729.09375 179.324219 730.199219 179.023438 731.3125 178.746094 C 732.425781 178.46875 733.542969 178.21875 734.667969 177.996094 C 735.792969 177.777344 736.925781 177.582031 738.058594 177.417969 C 739.191406 177.25 740.332031 177.113281 741.472656 177 C 742.613281 176.890625 743.757812 176.808594 744.902344 176.753906 C 746.046875 176.699219 747.191406 176.675781 748.339844 176.675781 C 749.484375 176.679688 750.632812 176.707031 751.777344 176.765625 C 752.921875 176.824219 754.0625 176.910156 755.207031 177.027344 C 756.347656 177.140625 757.484375 177.285156 758.617188 177.453125 C 759.75 177.625 760.878906 177.820312 762.003906 178.046875 C 763.128906 178.273438 764.246094 178.527344 765.355469 178.808594 C 766.46875 179.085938 767.574219 179.394531 768.667969 179.730469 C 769.765625 180.066406 770.855469 180.425781 771.933594 180.816406 C 773.011719 181.203125 774.078125 181.617188 775.136719 182.058594 C 776.195312 182.5 777.242188 182.964844 778.277344 183.457031 C 779.316406 183.949219 780.335938 184.464844 781.347656 185.007812 C 782.359375 185.550781 783.355469 186.117188 784.335938 186.707031 C 785.320312 187.300781 786.285156 187.914062 787.238281 188.554688 C 788.191406 189.191406 789.125 189.855469 790.046875 190.539062 C 790.964844 191.222656 791.867188 191.929688 792.753906 192.660156 C 793.636719 193.386719 794.503906 194.136719 795.351562 194.910156 C 796.199219 195.679688 797.027344 196.472656 797.839844 197.285156 C 798.648438 198.097656 799.4375 198.929688 800.203125 199.78125 C 800.972656 200.628906 801.71875 201.5 802.445312 202.386719 C 803.171875 203.273438 803.875 204.179688 804.554688 205.101562 C 805.238281 206.023438 805.894531 206.960938 806.53125 207.917969 C 807.167969 208.871094 807.777344 209.839844 808.367188 210.824219 C 808.953125 211.808594 809.515625 212.808594 810.054688 213.820312 C 810.59375 214.832031 811.105469 215.855469 811.59375 216.894531 C 812.082031 217.929688 812.546875 218.980469 812.984375 220.039062 C 813.417969 221.101562 813.832031 222.171875 814.214844 223.25 C 814.597656 224.332031 814.957031 225.417969 815.289062 226.515625 C 815.617188 227.613281 815.921875 228.71875 816.199219 229.832031 C 816.476562 230.945312 816.722656 232.0625 816.945312 233.1875 C 817.167969 234.3125 817.359375 235.445312 817.527344 236.578125 C 817.691406 237.710938 817.832031 238.851562 817.941406 239.992188 Z M 817.941406 239.992188 " fill-opacity="1" fill-rule="nonzero"/><path fill="#ffffff" d="M 380.023438 857.652344 C 380.023438 859.285156 379.941406 860.914062 379.78125 862.542969 C 379.621094 864.167969 379.382812 865.78125 379.0625 867.382812 C 378.746094 868.984375 378.347656 870.570312 377.875 872.132812 C 377.398438 873.695312 376.851562 875.230469 376.226562 876.742188 C 375.597656 878.25 374.902344 879.726562 374.132812 881.167969 C 373.363281 882.605469 372.523438 884.007812 371.613281 885.363281 C 370.707031 886.722656 369.734375 888.035156 368.699219 889.296875 C 367.664062 890.558594 366.566406 891.769531 365.410156 892.925781 C 364.257812 894.078125 363.046875 895.175781 361.785156 896.210938 C 360.523438 897.246094 359.210938 898.21875 357.851562 899.128906 C 356.496094 900.035156 355.09375 900.875 353.652344 901.644531 C 352.214844 902.414062 350.738281 903.113281 349.230469 903.738281 C 347.71875 904.363281 346.183594 904.914062 344.621094 905.386719 C 343.054688 905.859375 341.472656 906.257812 339.871094 906.574219 C 338.269531 906.894531 336.65625 907.132812 335.027344 907.292969 C 333.402344 907.453125 331.773438 907.535156 330.140625 907.535156 C 328.507812 907.535156 326.875 907.453125 325.25 907.292969 C 323.625 907.132812 322.011719 906.894531 320.410156 906.574219 C 318.804688 906.257812 317.222656 905.859375 315.660156 905.386719 C 314.097656 904.914062 312.558594 904.363281 311.050781 903.738281 C 309.542969 903.113281 308.066406 902.414062 306.625 901.644531 C 305.183594 900.875 303.785156 900.035156 302.425781 899.128906 C 301.070312 898.21875 299.757812 897.246094 298.496094 896.210938 C 297.230469 895.175781 296.023438 894.078125 294.867188 892.925781 C 293.714844 891.769531 292.617188 890.558594 291.582031 889.296875 C 290.542969 888.035156 289.574219 886.722656 288.664062 885.363281 C 287.757812 884.007812 286.917969 882.605469 286.148438 881.167969 C 285.378906 879.726562 284.679688 878.25 284.054688 876.742188 C 283.429688 875.230469 282.878906 873.695312 282.40625 872.132812 C 281.933594 870.570312 281.535156 868.984375 281.214844 867.382812 C 280.898438 865.78125 280.660156 864.167969 280.5 862.542969 C 280.339844 860.914062 280.257812 859.285156 280.257812 857.652344 C 280.257812 856.019531 280.339844 854.390625 280.5 852.761719 C 280.660156 851.136719 280.898438 849.523438 281.214844 847.921875 C 281.535156 846.320312 281.933594 844.734375 282.40625 843.171875 C 282.878906 841.609375 283.429688 840.074219 284.054688 838.5625 C 284.679688 837.054688 285.378906 835.578125 286.148438 834.136719 C 286.917969 832.699219 287.757812 831.296875 288.664062 829.941406 C 289.574219 828.582031 290.542969 827.269531 291.582031 826.007812 C 292.617188 824.746094 293.714844 823.535156 294.867188 822.378906 C 296.023438 821.226562 297.230469 820.128906 298.496094 819.09375 C 299.757812 818.058594 301.070312 817.085938 302.425781 816.175781 C 303.785156 815.269531 305.183594 814.429688 306.625 813.660156 C 308.066406 812.890625 309.542969 812.191406 311.050781 811.566406 C 312.558594 810.941406 314.097656 810.394531 315.660156 809.917969 C 317.222656 809.445312 318.804688 809.046875 320.410156 808.730469 C 322.011719 808.410156 323.625 808.171875 325.25 808.011719 C 326.875 807.851562 328.507812 807.769531 330.140625 807.769531 C 331.773438 807.769531 333.402344 807.851562 335.027344 808.011719 C 336.65625 808.171875 338.269531 808.410156 339.871094 808.730469 C 341.472656 809.046875 343.054688 809.445312 344.621094 809.917969 C 346.183594 810.394531 347.71875 810.941406 349.230469 811.566406 C 350.738281 812.191406 352.214844 812.890625 353.652344 813.660156 C 355.09375 814.429688 356.496094 815.269531 357.851562 816.175781 C 359.210938 817.085938 360.523438 818.058594 361.785156 819.09375 C 363.046875 820.128906 364.257812 821.226562 365.410156 822.378906 C 366.566406 823.535156 367.664062 824.746094 368.699219 826.007812 C 369.734375 827.269531 370.707031 828.582031 371.613281 829.941406 C 372.523438 831.296875 373.363281 832.699219 374.132812 834.136719 C 374.902344 835.578125 375.597656 837.054688 376.226562 838.5625 C 376.851562 840.074219 377.398438 841.609375 377.875 843.171875 C 378.347656 844.734375 378.746094 846.320312 379.0625 847.921875 C 379.382812 849.523438 379.621094 851.136719 379.78125 852.761719 C 379.941406 854.390625 380.023438 856.019531 380.023438 857.652344 Z M 380.023438 857.652344 " fill-opacity="1" fill-rule="nonzero"/><path fill="#ffffff" d="M 845.929688 874.25 C 845.34375 876.195312 844.667969 878.109375 843.894531 879.988281 C 843.125 881.871094 842.261719 883.707031 841.308594 885.503906 C 840.359375 887.296875 839.320312 889.042969 838.195312 890.734375 C 837.074219 892.429688 835.871094 894.0625 834.585938 895.636719 C 833.300781 897.210938 831.945312 898.71875 830.511719 900.160156 C 829.078125 901.601562 827.578125 902.972656 826.011719 904.265625 C 824.445312 905.558594 822.820312 906.773438 821.132812 907.910156 C 819.449219 909.042969 817.710938 910.09375 815.921875 911.054688 C 814.132812 912.019531 812.300781 912.894531 810.425781 913.675781 C 808.550781 914.460938 806.640625 915.148438 804.699219 915.746094 C 802.757812 916.34375 800.789062 916.84375 798.796875 917.246094 C 796.804688 917.648438 794.800781 917.953125 792.777344 918.15625 C 790.757812 918.363281 788.730469 918.46875 786.699219 918.476562 C 784.664062 918.484375 782.636719 918.390625 780.613281 918.195312 C 778.59375 918.003906 776.582031 917.714844 774.589844 917.324219 C 772.59375 916.933594 770.625 916.445312 768.679688 915.863281 C 766.730469 915.277344 764.820312 914.601562 762.9375 913.828125 C 761.058594 913.058594 759.222656 912.195312 757.425781 911.246094 C 755.632812 910.292969 753.886719 909.253906 752.195312 908.132812 C 750.5 907.007812 748.867188 905.804688 747.292969 904.519531 C 745.714844 903.234375 744.207031 901.878906 742.765625 900.445312 C 741.324219 899.011719 739.957031 897.511719 738.664062 895.945312 C 737.367188 894.378906 736.15625 892.753906 735.019531 891.066406 C 733.886719 889.382812 732.835938 887.644531 731.871094 885.855469 C 730.910156 884.066406 730.035156 882.234375 729.25 880.359375 C 728.46875 878.484375 727.777344 876.578125 727.183594 874.632812 C 726.585938 872.691406 726.085938 870.722656 725.683594 868.730469 C 725.28125 866.742188 724.976562 864.734375 724.769531 862.710938 C 724.566406 860.691406 724.457031 858.664062 724.453125 856.632812 C 724.445312 854.601562 724.539062 852.570312 724.730469 850.550781 C 724.925781 848.527344 725.214844 846.519531 725.605469 844.523438 C 725.996094 842.527344 726.480469 840.558594 727.066406 838.613281 C 727.648438 836.664062 728.328125 834.753906 729.097656 832.871094 C 729.871094 830.992188 730.730469 829.15625 731.683594 827.359375 C 732.636719 825.566406 733.675781 823.820312 734.796875 822.128906 C 735.921875 820.433594 737.125 818.800781 738.410156 817.226562 C 739.691406 815.652344 741.050781 814.140625 742.484375 812.699219 C 743.914062 811.257812 745.414062 809.890625 746.980469 808.597656 C 748.546875 807.304688 750.175781 806.089844 751.859375 804.953125 C 753.546875 803.820312 755.285156 802.769531 757.074219 801.808594 C 758.863281 800.84375 760.695312 799.96875 762.570312 799.1875 C 764.445312 798.402344 766.351562 797.710938 768.292969 797.117188 C 770.238281 796.519531 772.203125 796.019531 774.195312 795.617188 C 776.1875 795.214844 778.195312 794.910156 780.214844 794.703125 C 782.238281 794.5 784.265625 794.394531 786.296875 794.386719 C 788.328125 794.378906 790.355469 794.472656 792.378906 794.664062 C 794.402344 794.859375 796.410156 795.148438 798.40625 795.539062 C 800.398438 795.929688 802.371094 796.417969 804.316406 797 C 806.261719 797.582031 808.175781 798.261719 810.054688 799.03125 C 811.933594 799.804688 813.773438 800.667969 815.566406 801.617188 C 817.363281 802.570312 819.109375 803.609375 820.800781 804.730469 C 822.492188 805.855469 824.128906 807.058594 825.703125 808.34375 C 827.277344 809.628906 828.785156 810.984375 830.226562 812.417969 C 831.667969 813.851562 833.039062 815.347656 834.332031 816.914062 C 835.625 818.480469 836.839844 820.109375 837.972656 821.792969 C 839.109375 823.480469 840.15625 825.21875 841.121094 827.007812 C 842.085938 828.796875 842.957031 830.628906 843.742188 832.503906 C 844.527344 834.378906 845.214844 836.285156 845.8125 838.230469 C 846.410156 840.171875 846.90625 842.140625 847.3125 844.128906 C 847.714844 846.121094 848.019531 848.128906 848.222656 850.152344 C 848.429688 852.171875 848.535156 854.199219 848.542969 856.230469 C 848.546875 858.261719 848.457031 860.289062 848.261719 862.3125 C 848.070312 864.335938 847.777344 866.34375 847.390625 868.339844 C 847 870.332031 846.511719 872.304688 845.929688 874.25 Z M 845.929688 874.25 " fill-opacity="1" fill-rule="nonzero"/><path fill="#ffffff" d="M 577.808594 603.601562 C 567.949219 603.601562 559.828125 595.484375 559.828125 585.042969 C 559.828125 575.183594 567.949219 566.480469 577.808594 566.480469 L 743.695312 566.480469 C 754.136719 566.480469 762.257812 575.183594 762.257812 585.042969 C 762.257812 595.484375 754.136719 603.601562 743.695312 603.601562 Z M 577.808594 603.601562 " fill-opacity="1" fill-rule="nonzero"/><path fill="#ffffff" d="M 827.21875 585.042969 C 827.21875 586.410156 827.152344 587.773438 827.015625 589.136719 C 826.882812 590.496094 826.683594 591.847656 826.414062 593.191406 C 826.148438 594.53125 825.816406 595.855469 825.421875 597.164062 C 825.023438 598.472656 824.5625 599.761719 824.039062 601.023438 C 823.515625 602.289062 822.933594 603.523438 822.285156 604.730469 C 821.640625 605.933594 820.941406 607.105469 820.179688 608.242188 C 819.421875 609.382812 818.605469 610.476562 817.738281 611.535156 C 816.871094 612.59375 815.953125 613.605469 814.988281 614.570312 C 814.019531 615.539062 813.007812 616.457031 811.949219 617.324219 C 810.894531 618.191406 809.796875 619.007812 808.660156 619.765625 C 807.519531 620.527344 806.347656 621.226562 805.144531 621.871094 C 803.9375 622.515625 802.703125 623.101562 801.4375 623.625 C 800.175781 624.148438 798.886719 624.609375 797.578125 625.003906 C 796.269531 625.402344 794.945312 625.734375 793.605469 626 C 792.261719 626.269531 790.910156 626.46875 789.550781 626.601562 C 788.1875 626.738281 786.824219 626.804688 785.457031 626.804688 C 784.089844 626.804688 782.726562 626.738281 781.363281 626.601562 C 780.003906 626.46875 778.652344 626.269531 777.308594 626 C 775.96875 625.734375 774.644531 625.402344 773.332031 625.003906 C 772.023438 624.609375 770.738281 624.148438 769.476562 623.625 C 768.210938 623.101562 766.976562 622.515625 765.769531 621.871094 C 764.5625 621.226562 763.390625 620.527344 762.253906 619.765625 C 761.117188 619.007812 760.019531 618.191406 758.964844 617.324219 C 757.90625 616.457031 756.894531 615.539062 755.925781 614.570312 C 754.960938 613.605469 754.042969 612.59375 753.175781 611.535156 C 752.308594 610.476562 751.492188 609.382812 750.734375 608.242188 C 749.972656 607.105469 749.269531 605.933594 748.625 604.730469 C 747.980469 603.523438 747.398438 602.289062 746.875 601.023438 C 746.351562 599.761719 745.890625 598.472656 745.492188 597.164062 C 745.097656 595.855469 744.765625 594.53125 744.496094 593.191406 C 744.230469 591.847656 744.03125 590.496094 743.894531 589.136719 C 743.761719 587.773438 743.695312 586.410156 743.695312 585.042969 C 743.695312 583.675781 743.761719 582.308594 743.894531 580.949219 C 744.03125 579.589844 744.230469 578.238281 744.496094 576.894531 C 744.765625 575.554688 745.097656 574.226562 745.492188 572.917969 C 745.890625 571.609375 746.351562 570.324219 746.875 569.0625 C 747.398438 567.796875 747.980469 566.5625 748.625 565.355469 C 749.269531 564.148438 749.972656 562.976562 750.734375 561.839844 C 751.492188 560.703125 752.308594 559.605469 753.175781 558.550781 C 754.042969 557.492188 754.960938 556.480469 755.925781 555.511719 C 756.894531 554.546875 757.90625 553.628906 758.964844 552.761719 C 760.019531 551.894531 761.117188 551.078125 762.253906 550.320312 C 763.390625 549.558594 764.5625 548.855469 765.769531 548.210938 C 766.976562 547.566406 768.210938 546.984375 769.476562 546.460938 C 770.738281 545.9375 772.023438 545.476562 773.332031 545.078125 C 774.644531 544.683594 775.96875 544.351562 777.308594 544.082031 C 778.652344 543.816406 780.003906 543.617188 781.363281 543.480469 C 782.726562 543.347656 784.089844 543.28125 785.457031 543.28125 C 786.824219 543.28125 788.1875 543.347656 789.550781 543.480469 C 790.910156 543.617188 792.261719 543.816406 793.605469 544.082031 C 794.945312 544.351562 796.269531 544.683594 797.578125 545.078125 C 798.886719 545.476562 800.175781 545.9375 801.4375 546.460938 C 802.703125 546.984375 803.9375 547.566406 805.144531 548.210938 C 806.347656 548.855469 807.519531 549.558594 808.660156 550.320312 C 809.796875 551.078125 810.894531 551.894531 811.949219 552.761719 C 813.007812 553.628906 814.019531 554.546875 814.988281 555.511719 C 815.953125 556.480469 816.871094 557.492188 817.738281 558.550781 C 818.605469 559.605469 819.421875 560.703125 820.179688 561.839844 C 820.941406 562.976562 821.640625 564.148438 822.285156 565.355469 C 822.933594 566.5625 823.515625 567.796875 824.039062 569.0625 C 824.5625 570.324219 825.023438 571.609375 825.421875 572.917969 C 825.816406 574.226562 826.148438 575.554688 826.414062 576.894531 C 826.683594 578.238281 826.882812 579.589844 827.015625 580.949219 C 827.152344 582.308594 827.21875 583.675781 827.21875 585.042969 Z M 827.21875 585.042969 " fill-opacity="1" fill-rule="nonzero"/><path fill="#ffffff" d="M 577.808594 586.78125 C 577.808594 588.214844 577.773438 589.648438 577.703125 591.078125 C 577.632812 592.511719 577.527344 593.941406 577.386719 595.367188 C 577.246094 596.792969 577.070312 598.214844 576.859375 599.632812 C 576.652344 601.050781 576.40625 602.464844 576.125 603.867188 C 575.847656 605.273438 575.53125 606.671875 575.183594 608.0625 C 574.835938 609.453125 574.453125 610.835938 574.039062 612.207031 C 573.621094 613.578125 573.171875 614.9375 572.6875 616.289062 C 572.207031 617.636719 571.691406 618.976562 571.140625 620.300781 C 570.59375 621.625 570.011719 622.933594 569.398438 624.230469 C 568.789062 625.523438 568.144531 626.804688 567.46875 628.070312 C 566.792969 629.332031 566.085938 630.578125 565.347656 631.808594 C 564.613281 633.039062 563.84375 634.25 563.046875 635.441406 C 562.253906 636.632812 561.425781 637.804688 560.574219 638.957031 C 559.71875 640.105469 558.839844 641.238281 557.929688 642.34375 C 557.019531 643.453125 556.082031 644.539062 555.121094 645.601562 C 554.15625 646.660156 553.171875 647.699219 552.15625 648.714844 C 551.144531 649.726562 550.105469 650.714844 549.042969 651.675781 C 547.980469 652.640625 546.894531 653.574219 545.789062 654.484375 C 544.679688 655.394531 543.550781 656.277344 542.398438 657.128906 C 541.246094 657.984375 540.078125 658.808594 538.882812 659.605469 C 537.691406 660.402344 536.480469 661.167969 535.253906 661.90625 C 534.023438 662.640625 532.777344 663.347656 531.511719 664.023438 C 530.25 664.699219 528.96875 665.34375 527.671875 665.957031 C 526.375 666.570312 525.066406 667.148438 523.742188 667.699219 C 522.417969 668.246094 521.082031 668.761719 519.730469 669.246094 C 518.382812 669.730469 517.023438 670.179688 515.648438 670.59375 C 514.277344 671.011719 512.898438 671.394531 511.507812 671.742188 C 510.117188 672.089844 508.71875 672.402344 507.3125 672.683594 C 505.90625 672.960938 504.496094 673.207031 503.078125 673.417969 C 501.660156 673.628906 500.238281 673.804688 498.808594 673.945312 C 497.382812 674.085938 495.953125 674.191406 494.523438 674.261719 C 493.089844 674.332031 491.660156 674.367188 490.226562 674.367188 C 488.792969 674.367188 487.359375 674.332031 485.929688 674.261719 C 484.496094 674.191406 483.066406 674.085938 481.640625 673.945312 C 480.214844 673.804688 478.792969 673.628906 477.375 673.417969 C 475.957031 673.207031 474.546875 672.960938 473.140625 672.683594 C 471.734375 672.402344 470.335938 672.089844 468.945312 671.742188 C 467.554688 671.394531 466.171875 671.011719 464.800781 670.59375 C 463.429688 670.179688 462.070312 669.730469 460.71875 669.246094 C 459.371094 668.761719 458.035156 668.246094 456.710938 667.699219 C 455.386719 667.148438 454.074219 666.570312 452.777344 665.957031 C 451.484375 665.34375 450.203125 664.699219 448.9375 664.023438 C 447.675781 663.347656 446.429688 662.640625 445.199219 661.90625 C 443.96875 661.167969 442.757812 660.402344 441.566406 659.605469 C 440.375 658.808594 439.203125 657.984375 438.050781 657.128906 C 436.902344 656.277344 435.773438 655.394531 434.664062 654.484375 C 433.554688 653.574219 432.46875 652.640625 431.410156 651.675781 C 430.347656 650.714844 429.308594 649.726562 428.296875 648.714844 C 427.28125 647.699219 426.292969 646.660156 425.332031 645.601562 C 424.367188 644.539062 423.433594 643.453125 422.523438 642.34375 C 421.613281 641.238281 420.730469 640.105469 419.878906 638.957031 C 419.023438 637.804688 418.199219 636.632812 417.402344 635.441406 C 416.605469 634.25 415.839844 633.039062 415.101562 631.808594 C 414.367188 630.578125 413.660156 629.332031 412.984375 628.070312 C 412.308594 626.804688 411.664062 625.523438 411.050781 624.230469 C 410.4375 622.933594 409.859375 621.625 409.308594 620.300781 C 408.761719 618.976562 408.246094 617.636719 407.761719 616.289062 C 407.28125 614.9375 406.828125 613.578125 406.414062 612.207031 C 405.996094 610.835938 405.617188 609.453125 405.265625 608.0625 C 404.917969 606.671875 404.605469 605.273438 404.324219 603.867188 C 404.046875 602.464844 403.800781 601.050781 403.589844 599.632812 C 403.378906 598.214844 403.203125 596.792969 403.0625 595.367188 C 402.925781 593.941406 402.820312 592.511719 402.75 591.078125 C 402.679688 589.648438 402.644531 588.214844 402.644531 586.78125 C 402.644531 585.347656 402.679688 583.917969 402.75 582.484375 C 402.820312 581.054688 402.925781 579.625 403.0625 578.199219 C 403.203125 576.769531 403.378906 575.347656 403.589844 573.929688 C 403.800781 572.511719 404.046875 571.101562 404.324219 569.695312 C 404.605469 568.289062 404.917969 566.890625 405.265625 565.5 C 405.617188 564.109375 405.996094 562.730469 406.414062 561.359375 C 406.828125 559.988281 407.28125 558.625 407.761719 557.277344 C 408.246094 555.925781 408.761719 554.589844 409.308594 553.265625 C 409.859375 551.941406 410.4375 550.632812 411.050781 549.335938 C 411.664062 548.039062 412.308594 546.761719 412.984375 545.496094 C 413.660156 544.230469 414.367188 542.984375 415.101562 541.753906 C 415.839844 540.527344 416.605469 539.316406 417.402344 538.125 C 418.199219 536.933594 419.023438 535.761719 419.878906 534.609375 C 420.730469 533.457031 421.613281 532.328125 422.523438 531.21875 C 423.433594 530.113281 424.367188 529.027344 425.332031 527.964844 C 426.292969 526.902344 427.28125 525.867188 428.296875 524.851562 C 429.308594 523.839844 430.347656 522.851562 431.410156 521.886719 C 432.46875 520.925781 433.554688 519.988281 434.664062 519.078125 C 435.773438 518.171875 436.902344 517.289062 438.050781 516.433594 C 439.203125 515.582031 440.375 514.757812 441.566406 513.960938 C 442.757812 513.164062 443.96875 512.398438 445.199219 511.660156 C 446.429688 510.921875 447.675781 510.214844 448.9375 509.539062 C 450.203125 508.863281 451.484375 508.222656 452.777344 507.609375 C 454.074219 506.996094 455.386719 506.414062 456.710938 505.867188 C 458.035156 505.316406 459.371094 504.800781 460.71875 504.320312 C 462.070312 503.835938 463.429688 503.386719 464.800781 502.96875 C 466.171875 502.554688 467.554688 502.171875 468.945312 501.824219 C 470.335938 501.476562 471.734375 501.160156 473.140625 500.882812 C 474.546875 500.601562 475.957031 500.359375 477.375 500.148438 C 478.792969 499.9375 480.214844 499.761719 481.640625 499.621094 C 483.066406 499.480469 484.496094 499.375 485.929688 499.304688 C 487.359375 499.234375 488.792969 499.199219 490.226562 499.199219 C 491.660156 499.199219 493.089844 499.234375 494.523438 499.304688 C 495.953125 499.375 497.382812 499.480469 498.808594 499.621094 C 500.238281 499.761719 501.660156 499.9375 503.078125 500.148438 C 504.496094 500.359375 505.90625 500.601562 507.3125 500.882812 C 508.71875 501.160156 510.117188 501.476562 511.507812 501.824219 C 512.898438 502.171875 514.277344 502.554688 515.648438 502.96875 C 517.023438 503.386719 518.382812 503.835938 519.730469 504.320312 C 521.082031 504.800781 522.417969 505.316406 523.742188 505.867188 C 525.066406 506.414062 526.375 506.996094 527.671875 507.609375 C 528.96875 508.222656 530.25 508.863281 531.511719 509.539062 C 532.777344 510.214844 534.023438 510.921875 535.253906 511.660156 C 536.480469 512.398438 537.691406 513.164062 538.882812 513.960938 C 540.078125 514.757812 541.246094 515.582031 542.398438 516.433594 C 543.550781 517.289062 544.679688 518.171875 545.789062 519.078125 C 546.894531 519.988281 547.980469 520.925781 549.042969 521.886719 C 550.105469 522.851562 551.144531 523.839844 552.15625 524.851562 C 553.171875 525.867188 554.15625 526.902344 555.121094 527.964844 C 556.082031 529.027344 557.019531 530.113281 557.929688 531.21875 C 558.839844 532.328125 559.71875 533.457031 560.574219 534.609375 C 561.425781 535.761719 562.253906 536.933594 563.046875 538.125 C 563.84375 539.316406 564.613281 540.527344 565.347656 541.753906 C 566.085938 542.984375 566.792969 544.230469 567.46875 545.496094 C 568.144531 546.761719 568.789062 548.039062 569.398438 549.335938 C 570.011719 550.632812 570.59375 551.941406 571.140625 553.265625 C 571.691406 554.589844 572.207031 555.925781 572.6875 557.277344 C 573.171875 558.625 573.621094 559.988281 574.039062 561.359375 C 574.453125 562.730469 574.835938 564.109375 575.183594 565.5 C 575.53125 566.890625 575.847656 568.289062 576.125 569.695312 C 576.40625 571.101562 576.652344 572.511719 576.859375 573.929688 C 577.070312 575.347656 577.246094 576.769531 577.386719 578.199219 C 577.527344 579.625 577.632812 581.054688 577.703125 582.484375 C 577.773438 583.917969 577.808594 585.347656 577.808594 586.78125 Z M 577.808594 586.78125 " fill-opacity="1" fill-rule="nonzero"/></svg>