<svg xmlns="http://www.w3.org/2000/svg" xmlns:xlink="http://www.w3.org/1999/xlink" width="500" zoomAndPan="magnify" viewBox="0 0 375 135.000003" height="180" preserveAspectRatio="xMidYMid meet" version="1.0"><defs><clipPath id="5d698690cb"><path d="M 7.804688 9.953125 L 120.53125 9.953125 L 120.53125 122.675781 L 7.804688 122.675781 Z M 7.804688 9.953125 " clip-rule="nonzero"/></clipPath><clipPath id="6bbd5ea9e1"><path d="M 18.757812 9.953125 L 109.578125 9.953125 C 112.480469 9.953125 115.269531 11.105469 117.320312 13.160156 C 119.375 15.214844 120.53125 18.003906 120.53125 20.90625 L 120.53125 111.722656 C 120.53125 114.628906 119.375 117.414062 117.320312 119.46875 C 115.269531 121.523438 112.480469 122.675781 109.578125 122.675781 L 18.757812 122.675781 C 15.851562 122.675781 13.066406 121.523438 11.015625 119.46875 C 8.960938 117.414062 7.804688 114.628906 7.804688 111.722656 L 7.804688 20.90625 C 7.804688 18.003906 8.960938 15.214844 11.015625 13.160156 C 13.066406 11.105469 15.851562 9.953125 18.757812 9.953125 Z M 18.757812 9.953125 " clip-rule="nonzero"/></clipPath><clipPath id="18ad3d4980"><path d="M 29.476562 43.472656 L 40 43.472656 L 40 54.332031 L 29.476562 54.332031 Z M 29.476562 43.472656 " clip-rule="nonzero"/></clipPath></defs><g clip-path="url(#5d698690cb)"><g clip-path="url(#6bbd5ea9e1)"><path fill="#0d9488" d="M 7.804688 9.953125 L 120.53125 9.953125 L 120.53125 122.675781 L 7.804688 122.675781 Z M 7.804688 9.953125 " fill-opacity="1" fill-rule="nonzero"/></g></g><path fill="#ffffff" d="M 63.292969 63.085938 C 62.519531 63.925781 61.296875 64.054688 60.390625 63.28125 C 59.550781 62.570312 59.421875 61.28125 60.132812 60.441406 L 79.878906 37.015625 C 80.589844 36.113281 81.882812 36.046875 82.785156 36.757812 C 83.625 37.46875 83.753906 38.757812 82.980469 39.597656 Z M 63.292969 63.085938 " fill-opacity="1" fill-rule="nonzero"/><path fill="#ffffff" d="M 36.964844 53.34375 C 36.125 52.566406 36.125 51.277344 36.902344 50.503906 C 37.675781 49.664062 38.964844 49.664062 39.804688 50.4375 L 51.292969 61.605469 C 52.128906 62.378906 52.128906 63.667969 51.355469 64.507812 C 50.582031 65.28125 49.292969 65.347656 48.453125 64.570312 Z M 36.964844 53.34375 " fill-opacity="1" fill-rule="nonzero"/><path fill="#ffffff" d="M 62.519531 78.445312 C 61.679688 77.671875 61.550781 76.382812 62.328125 75.542969 C 63.039062 74.703125 64.328125 74.640625 65.167969 75.414062 L 86.527344 94.324219 C 87.367188 95.097656 87.496094 96.386719 86.722656 97.226562 C 86.011719 98.066406 84.722656 98.132812 83.882812 97.421875 Z M 62.519531 78.445312 " fill-opacity="1" fill-rule="nonzero"/><path fill="#ffffff" d="M 49.355469 76.898438 C 49.808594 75.929688 51.035156 75.480469 52.066406 75.996094 C 53.035156 76.445312 53.484375 77.671875 52.96875 78.707031 L 44.320312 96.582031 C 43.871094 97.546875 42.644531 98 41.609375 97.484375 C 40.644531 97.035156 40.191406 95.804688 40.707031 94.773438 Z M 49.355469 76.898438 " fill-opacity="1" fill-rule="nonzero"/><g clip-path="url(#18ad3d4980)"><path fill="#ffffff" d="M 39.933594 48.953125 C 39.933594 49.296875 39.898438 49.636719 39.832031 49.972656 C 39.765625 50.3125 39.667969 50.636719 39.535156 50.953125 C 39.402344 51.273438 39.242188 51.574219 39.050781 51.859375 C 38.859375 52.144531 38.644531 52.410156 38.402344 52.652344 C 38.160156 52.894531 37.894531 53.109375 37.609375 53.300781 C 37.324219 53.492188 37.023438 53.652344 36.707031 53.785156 C 36.390625 53.914062 36.0625 54.015625 35.726562 54.082031 C 35.390625 54.148438 35.050781 54.179688 34.707031 54.179688 C 34.363281 54.179688 34.023438 54.148438 33.683594 54.082031 C 33.347656 54.015625 33.023438 53.914062 32.707031 53.785156 C 32.386719 53.652344 32.085938 53.492188 31.800781 53.300781 C 31.515625 53.109375 31.253906 52.894531 31.011719 52.652344 C 30.765625 52.410156 30.550781 52.144531 30.359375 51.859375 C 30.167969 51.574219 30.007812 51.273438 29.875 50.953125 C 29.746094 50.636719 29.648438 50.3125 29.578125 49.972656 C 29.511719 49.636719 29.476562 49.296875 29.476562 48.953125 C 29.476562 48.609375 29.511719 48.273438 29.578125 47.933594 C 29.648438 47.597656 29.746094 47.269531 29.875 46.953125 C 30.007812 46.636719 30.167969 46.335938 30.359375 46.050781 C 30.550781 45.765625 30.765625 45.5 31.011719 45.257812 C 31.253906 45.015625 31.515625 44.796875 31.800781 44.609375 C 32.085938 44.417969 32.386719 44.257812 32.707031 44.125 C 33.023438 43.996094 33.347656 43.894531 33.683594 43.828125 C 34.023438 43.761719 34.363281 43.726562 34.707031 43.726562 C 35.050781 43.726562 35.390625 43.761719 35.726562 43.828125 C 36.0625 43.894531 36.390625 43.996094 36.707031 44.125 C 37.023438 44.257812 37.324219 44.417969 37.609375 44.609375 C 37.894531 44.796875 38.160156 45.015625 38.402344 45.257812 C 38.644531 45.5 38.859375 45.765625 39.050781 46.050781 C 39.242188 46.335938 39.402344 46.636719 39.535156 46.953125 C 39.667969 47.269531 39.765625 47.597656 39.832031 47.933594 C 39.898438 48.273438 39.933594 48.609375 39.933594 48.953125 Z M 39.933594 48.953125 " fill-opacity="1" fill-rule="nonzero"/></g><path fill="#ffffff" d="M 93.753906 31.601562 C 93.78125 31.855469 93.792969 32.109375 93.792969 32.367188 C 93.792969 32.621094 93.777344 32.875 93.753906 33.128906 C 93.726562 33.382812 93.691406 33.636719 93.640625 33.886719 C 93.589844 34.136719 93.527344 34.382812 93.453125 34.628906 C 93.378906 34.871094 93.292969 35.113281 93.195312 35.347656 C 93.097656 35.582031 92.984375 35.8125 92.863281 36.039062 C 92.746094 36.261719 92.613281 36.480469 92.472656 36.691406 C 92.328125 36.90625 92.175781 37.109375 92.011719 37.308594 C 91.851562 37.503906 91.679688 37.691406 91.5 37.875 C 91.320312 38.054688 91.128906 38.222656 90.929688 38.386719 C 90.734375 38.546875 90.527344 38.699219 90.316406 38.839844 C 90.105469 38.980469 89.886719 39.113281 89.660156 39.234375 C 89.433594 39.351562 89.203125 39.460938 88.96875 39.558594 C 88.730469 39.65625 88.492188 39.738281 88.246094 39.816406 C 88.003906 39.886719 87.753906 39.949219 87.503906 40 C 87.253906 40.050781 87 40.085938 86.746094 40.109375 C 86.492188 40.132812 86.238281 40.148438 85.984375 40.144531 C 85.726562 40.144531 85.472656 40.132812 85.21875 40.105469 C 84.964844 40.082031 84.714844 40.042969 84.464844 39.992188 C 84.214844 39.945312 83.964844 39.878906 83.722656 39.804688 C 83.476562 39.730469 83.238281 39.644531 83.003906 39.546875 C 82.765625 39.449219 82.535156 39.339844 82.308594 39.21875 C 82.085938 39.097656 81.867188 38.964844 81.65625 38.824219 C 81.441406 38.683594 81.238281 38.53125 81.042969 38.367188 C 80.84375 38.207031 80.65625 38.03125 80.476562 37.851562 C 80.296875 37.671875 80.125 37.484375 79.964844 37.285156 C 79.800781 37.089844 79.652344 36.882812 79.507812 36.667969 C 79.367188 36.457031 79.238281 36.238281 79.117188 36.011719 C 78.996094 35.789062 78.890625 35.554688 78.789062 35.320312 C 78.695312 35.085938 78.609375 34.84375 78.535156 34.601562 C 78.460938 34.355469 78.398438 34.109375 78.351562 33.859375 C 78.300781 33.609375 78.265625 33.355469 78.238281 33.101562 C 78.214844 32.847656 78.203125 32.59375 78.203125 32.335938 C 78.203125 32.082031 78.21875 31.828125 78.242188 31.574219 C 78.265625 31.320312 78.304688 31.066406 78.355469 30.816406 C 78.40625 30.566406 78.46875 30.320312 78.542969 30.074219 C 78.617188 29.832031 78.703125 29.589844 78.800781 29.355469 C 78.902344 29.121094 79.011719 28.890625 79.128906 28.664062 C 79.25 28.441406 79.382812 28.222656 79.523438 28.007812 C 79.667969 27.796875 79.820312 27.59375 79.980469 27.394531 C 80.144531 27.199219 80.316406 27.011719 80.496094 26.828125 C 80.675781 26.648438 80.867188 26.476562 81.0625 26.316406 C 81.261719 26.15625 81.464844 26.003906 81.679688 25.863281 C 81.890625 25.722656 82.109375 25.589844 82.335938 25.46875 C 82.558594 25.351562 82.792969 25.242188 83.027344 25.144531 C 83.265625 25.046875 83.503906 24.960938 83.75 24.886719 C 83.992188 24.816406 84.238281 24.753906 84.492188 24.703125 C 84.742188 24.652344 84.992188 24.617188 85.246094 24.59375 C 85.503906 24.570312 85.757812 24.554688 86.011719 24.558594 C 86.265625 24.558594 86.523438 24.570312 86.777344 24.59375 C 87.03125 24.621094 87.28125 24.660156 87.53125 24.710938 C 87.78125 24.757812 88.03125 24.820312 88.273438 24.898438 C 88.519531 24.972656 88.757812 25.058594 88.992188 25.15625 C 89.230469 25.253906 89.460938 25.363281 89.683594 25.484375 C 89.910156 25.605469 90.128906 25.738281 90.339844 25.878906 C 90.550781 26.019531 90.757812 26.171875 90.953125 26.335938 C 91.148438 26.496094 91.339844 26.667969 91.519531 26.851562 C 91.699219 27.03125 91.871094 27.21875 92.03125 27.417969 C 92.191406 27.613281 92.34375 27.820312 92.484375 28.03125 C 92.628906 28.246094 92.757812 28.464844 92.878906 28.691406 C 92.996094 28.914062 93.109375 29.144531 93.203125 29.382812 C 93.300781 29.617188 93.386719 29.855469 93.460938 30.101562 C 93.535156 30.347656 93.597656 30.59375 93.644531 30.84375 C 93.695312 31.09375 93.730469 31.347656 93.753906 31.601562 Z M 93.753906 31.601562 " fill-opacity="1" fill-rule="nonzero"/><path fill="#ffffff" d="M 45.03125 100.324219 C 45.03125 100.6875 44.996094 101.050781 44.925781 101.40625 C 44.855469 101.765625 44.75 102.113281 44.609375 102.449219 C 44.46875 102.785156 44.296875 103.105469 44.097656 103.40625 C 43.894531 103.710938 43.664062 103.992188 43.40625 104.25 C 43.148438 104.507812 42.867188 104.738281 42.566406 104.9375 C 42.261719 105.140625 41.941406 105.3125 41.605469 105.453125 C 41.269531 105.589844 40.921875 105.695312 40.5625 105.769531 C 40.207031 105.839844 39.84375 105.875 39.480469 105.875 C 39.117188 105.875 38.753906 105.839844 38.398438 105.769531 C 38.042969 105.695312 37.695312 105.589844 37.355469 105.453125 C 37.019531 105.3125 36.703125 105.140625 36.398438 104.9375 C 36.09375 104.738281 35.816406 104.507812 35.554688 104.25 C 35.300781 103.992188 35.070312 103.710938 34.867188 103.40625 C 34.664062 103.105469 34.492188 102.785156 34.355469 102.449219 C 34.214844 102.113281 34.109375 101.765625 34.039062 101.40625 C 33.96875 101.050781 33.929688 100.6875 33.929688 100.324219 C 33.929688 99.960938 33.96875 99.601562 34.039062 99.242188 C 34.109375 98.882812 34.214844 98.539062 34.355469 98.199219 C 34.492188 97.863281 34.664062 97.542969 34.867188 97.242188 C 35.070312 96.9375 35.300781 96.65625 35.554688 96.402344 C 35.816406 96.144531 36.09375 95.910156 36.398438 95.710938 C 36.703125 95.507812 37.019531 95.335938 37.355469 95.195312 C 37.695312 95.058594 38.042969 94.953125 38.398438 94.878906 C 38.753906 94.808594 39.117188 94.773438 39.480469 94.773438 C 39.84375 94.773438 40.207031 94.808594 40.5625 94.878906 C 40.921875 94.953125 41.269531 95.058594 41.605469 95.195312 C 41.941406 95.335938 42.261719 95.507812 42.566406 95.710938 C 42.867188 95.910156 43.148438 96.144531 43.40625 96.402344 C 43.664062 96.65625 43.894531 96.9375 44.097656 97.242188 C 44.296875 97.542969 44.46875 97.863281 44.609375 98.199219 C 44.75 98.539062 44.855469 98.882812 44.925781 99.242188 C 44.996094 99.601562 45.03125 99.960938 45.03125 100.324219 Z M 45.03125 100.324219 " fill-opacity="1" fill-rule="nonzero"/><path fill="#ffffff" d="M 96.871094 102.171875 C 96.804688 102.386719 96.730469 102.601562 96.644531 102.808594 C 96.558594 103.019531 96.460938 103.222656 96.355469 103.421875 C 96.25 103.621094 96.132812 103.816406 96.011719 104.003906 C 95.882812 104.191406 95.75 104.375 95.609375 104.550781 C 95.464844 104.726562 95.3125 104.894531 95.152344 105.054688 C 94.996094 105.214844 94.828125 105.367188 94.652344 105.511719 C 94.480469 105.65625 94.296875 105.789062 94.109375 105.917969 C 93.921875 106.042969 93.730469 106.160156 93.53125 106.265625 C 93.332031 106.375 93.128906 106.46875 92.921875 106.558594 C 92.710938 106.644531 92.5 106.722656 92.28125 106.789062 C 92.066406 106.855469 91.847656 106.910156 91.625 106.953125 C 91.40625 107 91.179688 107.035156 90.957031 107.054688 C 90.730469 107.078125 90.503906 107.089844 90.28125 107.09375 C 90.054688 107.09375 89.828125 107.082031 89.601562 107.058594 C 89.378906 107.039062 89.15625 107.007812 88.933594 106.964844 C 88.710938 106.917969 88.492188 106.867188 88.273438 106.800781 C 88.058594 106.738281 87.84375 106.660156 87.636719 106.574219 C 87.425781 106.488281 87.222656 106.394531 87.023438 106.289062 C 86.824219 106.179688 86.628906 106.066406 86.441406 105.941406 C 86.253906 105.816406 86.070312 105.683594 85.894531 105.539062 C 85.71875 105.394531 85.550781 105.246094 85.390625 105.085938 C 85.230469 104.925781 85.078125 104.757812 84.933594 104.585938 C 84.792969 104.410156 84.65625 104.230469 84.53125 104.042969 C 84.402344 103.855469 84.285156 103.660156 84.179688 103.464844 C 84.074219 103.265625 83.976562 103.058594 83.890625 102.851562 C 83.800781 102.640625 83.722656 102.429688 83.65625 102.214844 C 83.589844 101.996094 83.535156 101.777344 83.492188 101.558594 C 83.445312 101.335938 83.410156 101.113281 83.390625 100.886719 C 83.367188 100.664062 83.355469 100.4375 83.355469 100.210938 C 83.351562 99.984375 83.363281 99.757812 83.386719 99.535156 C 83.40625 99.308594 83.441406 99.085938 83.480469 98.863281 C 83.527344 98.640625 83.578125 98.421875 83.644531 98.207031 C 83.710938 97.988281 83.785156 97.777344 83.871094 97.566406 C 83.957031 97.359375 84.050781 97.152344 84.160156 96.953125 C 84.265625 96.753906 84.378906 96.558594 84.503906 96.371094 C 84.628906 96.183594 84.761719 96 84.90625 95.828125 C 85.050781 95.652344 85.199219 95.484375 85.359375 95.324219 C 85.519531 95.164062 85.6875 95.011719 85.859375 94.867188 C 86.035156 94.722656 86.214844 94.589844 86.402344 94.460938 C 86.589844 94.335938 86.785156 94.21875 86.984375 94.109375 C 87.183594 94.003906 87.386719 93.90625 87.59375 93.820312 C 87.804688 93.730469 88.015625 93.65625 88.230469 93.589844 C 88.449219 93.523438 88.667969 93.46875 88.890625 93.421875 C 89.109375 93.375 89.332031 93.34375 89.558594 93.320312 C 89.785156 93.296875 90.007812 93.285156 90.234375 93.285156 C 90.460938 93.285156 90.6875 93.292969 90.910156 93.316406 C 91.136719 93.335938 91.359375 93.371094 91.582031 93.414062 C 91.804688 93.457031 92.023438 93.511719 92.238281 93.574219 C 92.457031 93.640625 92.671875 93.714844 92.878906 93.800781 C 93.085938 93.890625 93.292969 93.984375 93.492188 94.089844 C 93.691406 94.195312 93.886719 94.3125 94.074219 94.4375 C 94.261719 94.5625 94.445312 94.695312 94.621094 94.839844 C 94.792969 94.980469 94.960938 95.132812 95.125 95.292969 C 95.28125 95.449219 95.433594 95.617188 95.578125 95.792969 C 95.722656 95.964844 95.859375 96.148438 95.984375 96.335938 C 96.109375 96.523438 96.226562 96.714844 96.335938 96.914062 C 96.441406 97.113281 96.539062 97.316406 96.628906 97.527344 C 96.714844 97.734375 96.789062 97.945312 96.855469 98.164062 C 96.921875 98.378906 96.976562 98.597656 97.023438 98.820312 C 97.070312 99.039062 97.101562 99.265625 97.125 99.488281 C 97.148438 99.714844 97.160156 99.941406 97.160156 100.164062 C 97.160156 100.390625 97.152344 100.617188 97.128906 100.84375 C 97.109375 101.066406 97.078125 101.292969 97.03125 101.511719 C 96.988281 101.734375 96.933594 101.953125 96.871094 102.171875 Z M 96.871094 102.171875 " fill-opacity="1" fill-rule="nonzero"/><path fill="#ffffff" d="M 67.039062 72.058594 C 65.941406 72.058594 65.035156 71.15625 65.035156 69.992188 C 65.035156 68.894531 65.941406 67.925781 67.039062 67.925781 L 85.496094 67.925781 C 86.65625 67.925781 87.558594 68.894531 87.558594 69.992188 C 87.558594 71.15625 86.65625 72.058594 85.496094 72.058594 Z M 67.039062 72.058594 " fill-opacity="1" fill-rule="nonzero"/><path fill="#ffffff" d="M 94.789062 69.992188 C 94.789062 70.296875 94.757812 70.601562 94.699219 70.898438 C 94.640625 71.199219 94.550781 71.488281 94.433594 71.769531 C 94.316406 72.054688 94.175781 72.320312 94.003906 72.574219 C 93.835938 72.828125 93.644531 73.0625 93.429688 73.277344 C 93.210938 73.492188 92.976562 73.6875 92.722656 73.855469 C 92.46875 74.027344 92.203125 74.167969 91.917969 74.285156 C 91.636719 74.402344 91.347656 74.488281 91.046875 74.550781 C 90.75 74.609375 90.445312 74.640625 90.140625 74.640625 C 89.835938 74.640625 89.535156 74.609375 89.234375 74.550781 C 88.933594 74.488281 88.644531 74.402344 88.363281 74.285156 C 88.082031 74.167969 87.8125 74.027344 87.558594 73.855469 C 87.304688 73.6875 87.070312 73.492188 86.855469 73.277344 C 86.640625 73.0625 86.445312 72.828125 86.277344 72.574219 C 86.109375 72.320312 85.964844 72.054688 85.847656 71.769531 C 85.730469 71.488281 85.644531 71.199219 85.585938 70.898438 C 85.523438 70.601562 85.496094 70.296875 85.496094 69.992188 C 85.496094 69.6875 85.523438 69.386719 85.585938 69.085938 C 85.644531 68.789062 85.730469 68.496094 85.847656 68.214844 C 85.964844 67.933594 86.109375 67.664062 86.277344 67.410156 C 86.445312 67.160156 86.640625 66.921875 86.855469 66.707031 C 87.070312 66.492188 87.304688 66.300781 87.558594 66.128906 C 87.8125 65.960938 88.082031 65.816406 88.363281 65.699219 C 88.644531 65.582031 88.933594 65.496094 89.234375 65.433594 C 89.535156 65.375 89.835938 65.347656 90.140625 65.347656 C 90.445312 65.347656 90.75 65.375 91.046875 65.433594 C 91.347656 65.496094 91.636719 65.582031 91.917969 65.699219 C 92.203125 65.816406 92.46875 65.960938 92.722656 66.128906 C 92.976562 66.300781 93.210938 66.492188 93.429688 66.707031 C 93.644531 66.921875 93.835938 67.160156 94.003906 67.410156 C 94.175781 67.664062 94.316406 67.933594 94.433594 68.214844 C 94.550781 68.496094 94.640625 68.789062 94.699219 69.085938 C 94.757812 69.386719 94.789062 69.6875 94.789062 69.992188 Z M 94.789062 69.992188 " fill-opacity="1" fill-rule="nonzero"/><path fill="#ffffff" d="M 67.039062 70.1875 C 67.039062 70.503906 67.023438 70.824219 66.992188 71.140625 C 66.960938 71.460938 66.914062 71.773438 66.851562 72.089844 C 66.789062 72.402344 66.710938 72.710938 66.617188 73.015625 C 66.527344 73.320312 66.417969 73.621094 66.296875 73.914062 C 66.171875 74.210938 66.039062 74.5 65.886719 74.78125 C 65.738281 75.0625 65.574219 75.335938 65.394531 75.601562 C 65.21875 75.867188 65.027344 76.121094 64.828125 76.367188 C 64.625 76.617188 64.410156 76.851562 64.183594 77.078125 C 63.957031 77.304688 63.722656 77.515625 63.476562 77.71875 C 63.230469 77.921875 62.972656 78.113281 62.707031 78.289062 C 62.441406 78.464844 62.167969 78.628906 61.886719 78.78125 C 61.605469 78.929688 61.316406 79.066406 61.023438 79.191406 C 60.726562 79.3125 60.425781 79.417969 60.121094 79.511719 C 59.816406 79.605469 59.507812 79.679688 59.195312 79.746094 C 58.882812 79.804688 58.566406 79.851562 58.25 79.886719 C 57.929688 79.914062 57.613281 79.933594 57.292969 79.933594 C 56.972656 79.933594 56.65625 79.914062 56.335938 79.886719 C 56.019531 79.851562 55.707031 79.804688 55.394531 79.746094 C 55.078125 79.679688 54.769531 79.605469 54.464844 79.511719 C 54.160156 79.417969 53.859375 79.3125 53.5625 79.191406 C 53.269531 79.066406 52.980469 78.929688 52.699219 78.78125 C 52.417969 78.628906 52.144531 78.464844 51.878906 78.289062 C 51.613281 78.113281 51.359375 77.921875 51.109375 77.71875 C 50.863281 77.515625 50.628906 77.304688 50.402344 77.078125 C 50.175781 76.851562 49.960938 76.617188 49.761719 76.367188 C 49.558594 76.121094 49.367188 75.867188 49.191406 75.601562 C 49.011719 75.335938 48.847656 75.0625 48.699219 74.78125 C 48.550781 74.5 48.410156 74.210938 48.289062 73.914062 C 48.167969 73.621094 48.0625 73.320312 47.96875 73.015625 C 47.875 72.710938 47.796875 72.402344 47.734375 72.089844 C 47.671875 71.773438 47.625 71.460938 47.59375 71.140625 C 47.5625 70.824219 47.550781 70.503906 47.550781 70.1875 C 47.550781 69.867188 47.5625 69.546875 47.59375 69.230469 C 47.625 68.914062 47.671875 68.597656 47.734375 68.285156 C 47.796875 67.972656 47.875 67.664062 47.96875 67.355469 C 48.0625 67.054688 48.167969 66.75 48.289062 66.457031 C 48.410156 66.160156 48.550781 65.875 48.699219 65.59375 C 48.847656 65.3125 49.011719 65.039062 49.191406 64.773438 C 49.367188 64.507812 49.558594 64.25 49.761719 64.003906 C 49.960938 63.757812 50.175781 63.523438 50.402344 63.296875 C 50.628906 63.070312 50.863281 62.855469 51.109375 62.652344 C 51.359375 62.449219 51.613281 62.261719 51.878906 62.082031 C 52.144531 61.90625 52.417969 61.742188 52.699219 61.59375 C 52.980469 61.441406 53.269531 61.304688 53.5625 61.183594 C 53.859375 61.0625 54.160156 60.953125 54.464844 60.859375 C 54.769531 60.769531 55.078125 60.691406 55.394531 60.628906 C 55.707031 60.566406 56.019531 60.519531 56.335938 60.488281 C 56.65625 60.457031 56.972656 60.441406 57.292969 60.441406 C 57.613281 60.441406 57.929688 60.457031 58.25 60.488281 C 58.566406 60.519531 58.882812 60.566406 59.195312 60.628906 C 59.507812 60.691406 59.816406 60.769531 60.121094 60.859375 C 60.425781 60.953125 60.726562 61.0625 61.023438 61.183594 C 61.316406 61.304688 61.605469 61.441406 61.886719 61.59375 C 62.167969 61.742188 62.441406 61.90625 62.707031 62.082031 C 62.972656 62.261719 63.230469 62.449219 63.476562 62.652344 C 63.722656 62.855469 63.957031 63.070312 64.183594 63.296875 C 64.410156 63.523438 64.625 63.757812 64.828125 64.003906 C 65.027344 64.25 65.21875 64.507812 65.394531 64.773438 C 65.574219 65.039062 65.738281 65.3125 65.886719 65.59375 C 66.039062 65.875 66.171875 66.160156 66.296875 66.457031 C 66.417969 66.75 66.527344 67.054688 66.617188 67.355469 C 66.710938 67.664062 66.789062 67.972656 66.851562 68.285156 C 66.914062 68.597656 66.960938 68.914062 66.992188 69.230469 C 67.023438 69.546875 67.039062 69.867188 67.039062 70.1875 Z M 67.039062 70.1875 " fill-opacity="1" fill-rule="nonzero"/><path fill="#0d9488" d="M 161.804688 73.582031 L 155 73.582031 C 154.078125 73.582031 153.46875 73.449219 153.164062 73.1875 C 152.863281 72.921875 152.632812 72.425781 152.472656 71.703125 C 152.257812 70.683594 152.058594 68.027344 151.871094 63.726562 C 151.6875 59.425781 151.597656 54.601562 151.597656 49.261719 C 151.597656 45.351562 151.703125 41.671875 151.917969 38.21875 C 152.132812 34.769531 152.375 32.261719 152.648438 30.695312 C 152.667969 30.617188 152.691406 30.53125 152.714844 30.433594 C 153.042969 28.667969 153.570312 27.789062 154.292969 27.789062 L 161.011719 27.789062 C 162.144531 27.789062 163.078125 28.09375 163.8125 28.699219 C 164.546875 29.304688 165.460938 30.46875 166.558594 32.1875 C 167.886719 34.320312 169.078125 36.625 170.132812 39.097656 C 171.1875 41.570312 171.816406 42.808594 172.011719 42.808594 C 172.207031 42.808594 172.902344 41.554688 174.105469 39.039062 C 175.3125 36.527344 176.695312 34.246094 178.261719 32.1875 C 179.570312 30.449219 180.613281 29.28125 181.386719 28.683594 C 182.15625 28.085938 182.972656 27.789062 183.832031 27.789062 L 189.554688 27.789062 C 190.628906 27.789062 191.304688 28.539062 191.578125 30.046875 C 191.597656 30.226562 191.625 30.382812 191.664062 30.519531 C 192.015625 32.417969 192.289062 35.207031 192.484375 38.894531 C 192.683594 42.578125 192.785156 46.769531 192.785156 51.460938 C 192.785156 55.335938 192.671875 58.953125 192.457031 62.316406 C 192.242188 65.679688 191.957031 68.390625 191.605469 70.445312 C 191.566406 70.601562 191.527344 70.804688 191.492188 71.058594 C 191.214844 72.742188 190.511719 73.582031 189.378906 73.582031 L 181.929688 73.582031 C 181.535156 73.582031 181.273438 73.550781 181.144531 73.492188 C 181.019531 73.433594 180.957031 73.328125 180.957031 73.171875 C 180.957031 73.113281 181.1875 72.351562 181.648438 70.882812 C 182.109375 69.417969 182.503906 67.910156 182.835938 66.367188 C 183.304688 64.136719 183.652344 61.777344 183.878906 59.296875 C 184.101562 56.8125 184.21875 53.378906 184.21875 49 L 184.21875 47.558594 C 184.21875 44.859375 184.09375 42.917969 183.847656 41.726562 C 183.601562 40.53125 183.195312 39.933594 182.632812 39.933594 C 182.007812 39.933594 181.152344 40.996094 180.0625 43.117188 C 178.976562 45.242188 177.9375 47.925781 176.9375 51.167969 C 176.371094 53.046875 175.804688 55.375 175.242188 58.148438 C 174.535156 61.707031 173.457031 63.488281 172.011719 63.488281 C 170.386719 63.488281 169.136719 61.613281 168.253906 57.859375 C 167.667969 55.335938 167.121094 53.242188 166.617188 51.578125 C 165.402344 47.847656 164.265625 44.953125 163.210938 42.902344 C 162.15625 40.847656 161.269531 39.816406 160.542969 39.816406 C 160.035156 39.816406 159.679688 40.484375 159.472656 41.8125 C 159.265625 43.144531 159.160156 45.480469 159.160156 48.824219 C 159.160156 56.78125 160.21875 64.242188 162.332031 71.203125 C 162.605469 72.144531 162.742188 72.695312 162.742188 72.847656 C 162.742188 73.121094 162.671875 73.3125 162.539062 73.421875 C 162.398438 73.527344 162.15625 73.582031 161.804688 73.582031 Z M 161.804688 73.582031 " fill-opacity="1" fill-rule="nonzero"/><path fill="#0d9488" d="M 199.757812 72.789062 L 199.757812 66.804688 C 199.757812 66.492188 199.808594 66.285156 199.90625 66.179688 C 200 66.070312 200.167969 66.015625 200.402344 66.015625 C 200.519531 66.015625 200.703125 66.035156 200.957031 66.074219 C 201.214844 66.113281 201.433594 66.132812 201.609375 66.132812 C 203.679688 66.132812 205.476562 65.746094 207.003906 64.972656 C 208.527344 64.199219 209.289062 63.382812 209.289062 62.519531 C 209.289062 62.09375 208.636719 61.324219 207.335938 60.222656 C 206.039062 59.113281 204.988281 58.003906 204.1875 56.886719 C 202.585938 54.640625 201.382812 52.210938 200.578125 49.601562 C 199.777344 46.988281 199.378906 44.1875 199.378906 41.191406 C 199.378906 40.199219 199.476562 39.53125 199.671875 39.1875 C 199.867188 38.84375 200.316406 38.671875 201.023438 38.671875 L 207.089844 38.671875 C 207.503906 38.671875 207.800781 38.707031 207.984375 38.777344 C 208.171875 38.84375 208.265625 38.964844 208.265625 39.144531 C 208.265625 39.398438 208.207031 39.96875 208.089844 40.847656 C 207.972656 41.726562 207.914062 42.507812 207.914062 43.1875 C 207.914062 46.101562 208.675781 48.945312 210.203125 51.714844 C 211.726562 54.480469 213.046875 55.863281 214.160156 55.863281 C 215.136719 55.863281 215.992188 54.757812 216.726562 52.550781 C 217.460938 50.339844 217.828125 47.621094 217.828125 44.394531 C 217.828125 43.296875 217.757812 42.195312 217.621094 41.082031 C 217.484375 39.96875 217.417969 39.390625 217.417969 39.351562 C 217.417969 39.113281 217.476562 38.941406 217.59375 38.835938 C 217.710938 38.726562 217.90625 38.671875 218.179688 38.671875 L 223.375 38.671875 C 224.019531 38.671875 224.429688 38.863281 224.605469 39.246094 C 224.777344 39.628906 224.867188 40.640625 224.867188 42.28125 C 224.867188 46.625 224.191406 50.785156 222.84375 54.761719 C 221.492188 58.742188 219.539062 62.355469 216.980469 65.597656 C 214.785156 68.359375 212.316406 70.507812 209.570312 72.054688 C 206.824219 73.597656 204.113281 74.371094 201.433594 74.371094 C 200.707031 74.371094 200.246094 74.292969 200.050781 74.136719 C 199.855469 73.980469 199.757812 73.53125 199.757812 72.789062 Z M 199.757812 72.789062 " fill-opacity="1" fill-rule="nonzero"/><path fill="#0d9488" d="M 273.09375 73.582031 L 249.066406 73.582031 C 248.203125 73.582031 247.644531 73.449219 247.394531 73.1875 C 247.136719 72.921875 246.953125 72.183594 246.835938 70.96875 C 246.738281 70.109375 246.644531 68.101562 246.554688 64.957031 C 246.46875 61.808594 246.425781 58.335938 246.425781 54.539062 C 246.425781 50.417969 246.625 46.386719 247.023438 42.445312 C 247.425781 38.5 247.96875 35.140625 248.65625 32.363281 C 249.085938 30.507812 249.484375 29.28125 249.855469 28.683594 C 250.226562 28.085938 250.707031 27.789062 251.296875 27.789062 L 273.035156 27.789062 C 273.558594 27.789062 273.917969 27.84375 274.117188 27.953125 C 274.308594 28.0625 274.410156 28.230469 274.410156 28.464844 C 274.410156 28.546875 274.398438 28.628906 274.378906 28.71875 C 274.359375 28.804688 274.328125 28.875 274.292969 28.933594 L 271.066406 35.972656 C 270.890625 36.304688 270.734375 36.542969 270.59375 36.683594 C 270.457031 36.820312 270.308594 36.886719 270.15625 36.886719 C 270.054688 36.863281 269.792969 36.726562 269.363281 36.472656 C 266.859375 35.023438 264.484375 34.300781 262.238281 34.300781 C 259.753906 34.300781 257.804688 35.003906 256.398438 36.414062 C 254.988281 37.820312 254.285156 39.777344 254.285156 42.28125 C 254.285156 43.144531 254.449219 43.839844 254.78125 44.363281 C 255.117188 44.890625 255.558594 45.15625 256.105469 45.15625 C 256.691406 45.15625 258.039062 44.714844 260.148438 43.839844 C 262.261719 42.957031 264.070312 42.515625 265.578125 42.515625 C 267.125 42.515625 268.109375 42.589844 268.539062 42.738281 C 268.972656 42.882812 269.1875 43.148438 269.1875 43.539062 C 269.1875 43.621094 269.183594 43.691406 269.171875 43.75 C 269.164062 43.808594 269.128906 43.917969 269.070312 44.070312 L 266.492188 51.226562 C 266.453125 51.324219 266.394531 51.472656 266.316406 51.667969 C 266.160156 52.058594 265.992188 52.253906 265.8125 52.253906 C 265.753906 52.253906 265.195312 52.09375 264.140625 51.773438 C 263.085938 51.449219 262.089844 51.285156 261.148438 51.285156 C 259.136719 51.285156 257.488281 51.972656 256.203125 53.339844 C 254.925781 54.710938 254.285156 56.46875 254.285156 58.617188 C 254.285156 61.105469 254.921875 63.035156 256.191406 64.417969 C 257.464844 65.796875 259.253906 66.484375 261.558594 66.484375 C 263.457031 66.484375 265.441406 65.863281 267.503906 64.621094 C 269.566406 63.378906 270.609375 62.753906 270.628906 62.753906 C 270.804688 62.753906 270.96875 62.828125 271.125 62.976562 C 271.28125 63.121094 271.417969 63.332031 271.535156 63.609375 L 275.261719 71.671875 C 275.320312 71.808594 275.363281 71.9375 275.390625 72.054688 C 275.421875 72.171875 275.4375 72.277344 275.4375 72.375 C 275.4375 72.789062 275.25 73.09375 274.875 73.289062 C 274.503906 73.484375 273.910156 73.582031 273.09375 73.582031 Z M 273.09375 73.582031 " fill-opacity="1" fill-rule="nonzero"/><path fill="#0d9488" d="M 284.085938 73.582031 L 279.6875 73.582031 C 279.101562 73.582031 278.734375 73.460938 278.585938 73.21875 C 278.441406 72.972656 278.371094 72.253906 278.371094 71.058594 C 278.371094 69.789062 278.554688 68.398438 278.925781 66.890625 C 279.296875 65.386719 279.816406 63.949219 280.480469 62.578125 C 281.144531 61.210938 282.027344 59.839844 283.132812 58.460938 C 284.238281 57.078125 284.792969 56.234375 284.792969 55.921875 C 284.792969 55.550781 284.316406 54.792969 283.367188 53.652344 C 282.417969 52.503906 281.699219 51.484375 281.214844 50.585938 C 280.53125 49.371094 280.007812 47.921875 279.644531 46.230469 C 279.28125 44.539062 279.101562 42.703125 279.101562 40.726562 C 279.101562 39.789062 279.179688 39.214844 279.335938 39 C 279.488281 38.78125 279.832031 38.671875 280.363281 38.671875 L 285.640625 38.671875 C 286.421875 38.671875 286.84375 39.171875 286.90625 40.167969 C 286.945312 41.148438 287.023438 42.046875 287.140625 42.867188 C 287.472656 45.117188 288.015625 46.949219 288.765625 48.355469 C 289.519531 49.765625 290.296875 50.46875 291.097656 50.46875 C 291.761719 50.46875 292.433594 49.886719 293.109375 48.722656 C 293.785156 47.558594 294.296875 46.054688 294.648438 44.21875 C 294.84375 43.277344 295 42.164062 295.117188 40.871094 C 295.25 39.40625 295.625 38.671875 296.234375 38.671875 L 300.429688 38.671875 C 301.074219 38.671875 301.492188 38.773438 301.6875 38.980469 C 301.882812 39.1875 301.980469 39.671875 301.980469 40.433594 C 301.980469 41.722656 301.796875 43.121094 301.433594 44.628906 C 301.074219 46.132812 300.570312 47.511719 299.925781 48.765625 C 299.339844 49.9375 298.496094 51.132812 297.390625 52.347656 C 296.289062 53.554688 295.734375 54.367188 295.734375 54.78125 C 295.734375 55.328125 296.347656 56.1875 297.566406 57.359375 C 298.789062 58.535156 299.722656 59.617188 300.371094 60.613281 C 301.25 62.003906 301.917969 63.527344 302.378906 65.191406 C 302.835938 66.851562 303.066406 68.613281 303.066406 70.472656 C 303.066406 71.921875 302.988281 72.800781 302.832031 73.113281 C 302.675781 73.425781 302.390625 73.582031 301.980469 73.582031 L 296.46875 73.582031 C 295.644531 73.582031 295.203125 72.964844 295.144531 71.730469 C 295.085938 70.265625 294.902344 68.933594 294.589844 67.742188 C 294.0625 65.765625 293.320312 64.078125 292.359375 62.667969 C 291.398438 61.261719 290.578125 60.554688 289.894531 60.554688 C 289.132812 60.554688 288.402344 61.164062 287.707031 62.375 C 287.011719 63.589844 286.460938 65.242188 286.050781 67.332031 C 285.796875 68.699219 285.621094 70.167969 285.527344 71.730469 C 285.445312 72.964844 284.964844 73.582031 284.085938 73.582031 Z M 284.085938 73.582031 " fill-opacity="1" fill-rule="nonzero"/><path fill="#0d9488" d="M 315.386719 54.480469 C 315.386719 56.734375 315.570312 58.136719 315.941406 58.695312 C 316.3125 59.253906 317.007812 59.53125 318.023438 59.53125 C 320.039062 59.53125 322.007812 58.605469 323.921875 56.757812 C 325.835938 54.910156 326.796875 52.871094 326.796875 50.644531 C 326.796875 48.78125 326.164062 47.277344 324.898438 46.125 C 323.636719 44.972656 322.011719 44.394531 320.019531 44.394531 C 318.140625 44.394531 316.902344 45.050781 316.292969 46.359375 C 315.6875 47.671875 315.386719 50.378906 315.386719 54.480469 Z M 315.269531 73.582031 L 309.839844 73.582031 C 309.3125 73.582031 308.945312 73.511719 308.738281 73.375 C 308.535156 73.238281 308.382812 72.988281 308.289062 72.613281 C 308.132812 71.929688 308.015625 70.414062 307.9375 68.070312 C 307.855469 65.71875 307.820312 62.648438 307.820312 58.851562 C 307.820312 54.453125 307.902344 50.65625 308.066406 47.460938 C 308.230469 44.261719 308.472656 41.957031 308.785156 40.550781 C 309.039062 39.375 309.40625 38.640625 309.886719 38.335938 C 310.363281 38.035156 311.472656 37.882812 313.214844 37.882812 C 321.210938 37.882812 326.609375 38.722656 329.417969 40.402344 C 332.226562 42.085938 333.628906 44.988281 333.628906 49.117188 C 333.628906 51.484375 333.179688 53.734375 332.277344 55.863281 C 331.378906 57.992188 330.050781 59.957031 328.292969 61.761719 C 326.984375 63.050781 325.625 64.125 324.226562 64.972656 C 322.828125 65.824219 321.761719 66.25 321.019531 66.25 C 320.410156 66.25 319.734375 65.9375 318.988281 65.3125 C 318.246094 64.683594 317.28125 63.597656 316.085938 62.054688 L 315.621094 62.054688 C 315.597656 62.328125 315.585938 62.605469 315.574219 62.890625 C 315.5625 63.171875 315.5625 63.566406 315.5625 64.078125 C 315.5625 65.71875 315.730469 67.542969 316.074219 69.546875 C 316.417969 71.554688 316.589844 72.703125 316.589844 72.996094 C 316.589844 73.191406 316.480469 73.335938 316.261719 73.433594 C 316.046875 73.53125 315.714844 73.582031 315.269531 73.582031 Z M 315.269531 73.582031 " fill-opacity="1" fill-rule="nonzero"/><path fill="#0d9488" d="M 352.078125 44.453125 C 350.046875 44.453125 348.421875 45.398438 347.210938 47.285156 C 345.996094 49.167969 345.390625 51.707031 345.390625 54.898438 C 345.390625 58.066406 345.980469 60.578125 347.164062 62.433594 C 348.347656 64.292969 349.949219 65.21875 351.960938 65.21875 C 353.855469 65.21875 355.410156 64.226562 356.625 62.246094 C 357.835938 60.261719 358.445312 57.671875 358.445312 54.480469 C 358.445312 51.429688 357.855469 48.996094 356.683594 47.179688 C 355.507812 45.363281 353.972656 44.453125 352.078125 44.453125 Z M 338.320312 56.273438 C 338.320312 50.71875 339.582031 46.277344 342.101562 42.953125 C 344.625 39.628906 347.988281 37.96875 352.195312 37.96875 C 356.148438 37.96875 359.34375 39.570312 361.785156 42.765625 C 364.230469 45.960938 365.453125 50.210938 365.453125 55.511719 C 365.453125 61.144531 364.179688 65.695312 361.628906 69.167969 C 359.078125 72.636719 355.746094 74.371094 351.640625 74.371094 C 347.667969 74.371094 344.457031 72.707031 342.003906 69.386719 C 339.546875 66.0625 338.320312 61.691406 338.320312 56.273438 Z M 338.320312 56.273438 " fill-opacity="1" fill-rule="nonzero"/><path fill="#0d9488" d="M 157.566406 91.226562 L 157.566406 92.273438 L 152.476562 92.273438 L 152.476562 96.21875 L 157.058594 96.21875 L 157.058594 97.277344 L 152.476562 97.277344 L 152.476562 102.050781 L 151.207031 102.050781 L 151.207031 91.226562 Z M 157.566406 91.226562 " fill-opacity="1" fill-rule="nonzero"/><path fill="#0d9488" d="M 161.519531 102.210938 C 160.714844 102.210938 160.089844 102 159.636719 101.578125 C 159.183594 101.15625 158.957031 100.558594 158.957031 99.777344 C 158.957031 99.292969 159.058594 98.886719 159.257812 98.554688 C 159.457031 98.222656 159.765625 97.949219 160.1875 97.738281 C 160.609375 97.527344 161.15625 97.367188 161.832031 97.253906 C 162.421875 97.15625 162.875 97.046875 163.183594 96.921875 C 163.488281 96.796875 163.699219 96.65625 163.804688 96.503906 C 163.910156 96.351562 163.96875 96.160156 163.96875 95.925781 C 163.96875 95.554688 163.839844 95.273438 163.582031 95.078125 C 163.324219 94.878906 162.917969 94.777344 162.359375 94.777344 C 161.828125 94.777344 161.371094 94.882812 160.996094 95.089844 C 160.621094 95.292969 160.273438 95.597656 159.957031 96 L 159.8125 96 L 159.214844 95.164062 C 159.5625 94.722656 160 94.375 160.53125 94.117188 C 161.066406 93.855469 161.675781 93.726562 162.359375 93.726562 C 163.320312 93.726562 164.03125 93.9375 164.488281 94.363281 C 164.945312 94.785156 165.171875 95.367188 165.171875 96.113281 L 165.171875 100.441406 C 165.171875 100.898438 165.367188 101.128906 165.75 101.128906 C 165.875 101.128906 166 101.105469 166.121094 101.058594 L 166.226562 101.085938 L 166.367188 101.921875 C 166.273438 101.984375 166.15625 102.03125 166.007812 102.0625 C 165.863281 102.09375 165.714844 102.109375 165.5625 102.109375 C 165.113281 102.109375 164.777344 102.015625 164.546875 101.816406 C 164.316406 101.617188 164.167969 101.328125 164.105469 100.941406 L 163.949219 100.929688 C 163.71875 101.359375 163.40625 101.679688 163.007812 101.894531 C 162.613281 102.105469 162.117188 102.210938 161.519531 102.210938 Z M 161.785156 101.246094 C 162.242188 101.246094 162.632812 101.140625 162.964844 100.929688 C 163.300781 100.71875 163.558594 100.421875 163.734375 100.046875 C 163.910156 99.667969 164.003906 99.230469 164.003906 98.726562 L 164.003906 97.691406 L 163.863281 97.65625 C 163.675781 97.785156 163.453125 97.894531 163.195312 97.984375 C 162.933594 98.070312 162.570312 98.148438 162.101562 98.214844 C 161.625 98.28125 161.246094 98.378906 160.964844 98.511719 C 160.6875 98.644531 160.488281 98.816406 160.367188 99.019531 C 160.25 99.222656 160.191406 99.476562 160.191406 99.777344 C 160.191406 100.253906 160.332031 100.621094 160.613281 100.871094 C 160.898438 101.121094 161.289062 101.246094 161.785156 101.246094 Z M 161.785156 101.246094 " fill-opacity="1" fill-rule="nonzero"/><path fill="#0d9488" d="M 168.628906 92.304688 C 168.371094 92.304688 168.164062 92.222656 168.003906 92.0625 C 167.84375 91.902344 167.765625 91.699219 167.765625 91.457031 C 167.765625 91.210938 167.84375 91.007812 168.003906 90.847656 C 168.164062 90.683594 168.371094 90.601562 168.628906 90.601562 C 168.886719 90.601562 169.09375 90.683594 169.257812 90.847656 C 169.414062 91.007812 169.496094 91.210938 169.496094 91.457031 C 169.496094 91.699219 169.414062 91.902344 169.257812 92.0625 C 169.09375 92.222656 168.886719 92.304688 168.628906 92.304688 Z M 168.023438 102.050781 L 168.023438 93.882812 L 169.226562 93.882812 L 169.226562 102.050781 Z M 168.023438 102.050781 " fill-opacity="1" fill-rule="nonzero"/><path fill="#0d9488" d="M 172.074219 102.050781 L 172.074219 93.882812 L 173.21875 93.882812 L 173.21875 95.164062 L 173.378906 95.199219 C 173.753906 94.273438 174.472656 93.808594 175.523438 93.808594 C 176.082031 93.808594 176.5 93.910156 176.777344 94.113281 L 176.46875 95.136719 L 176.316406 95.164062 C 176.011719 95.011719 175.675781 94.9375 175.308594 94.9375 C 174.65625 94.9375 174.15625 95.179688 173.804688 95.667969 C 173.453125 96.15625 173.277344 96.949219 173.277344 98.042969 L 173.277344 102.050781 Z M 172.074219 102.050781 " fill-opacity="1" fill-rule="nonzero"/><path fill="#0d9488" d="M 180.6875 102.210938 C 180.171875 102.210938 179.695312 102.140625 179.257812 102.003906 C 178.820312 101.867188 178.453125 101.683594 178.152344 101.445312 C 177.851562 101.207031 177.640625 100.941406 177.515625 100.648438 L 178.222656 99.90625 L 178.382812 99.90625 C 178.648438 100.3125 178.96875 100.617188 179.339844 100.824219 C 179.71875 101.027344 180.167969 101.128906 180.6875 101.128906 C 181.285156 101.128906 181.742188 101.011719 182.054688 100.777344 C 182.371094 100.542969 182.53125 100.214844 182.53125 99.792969 C 182.53125 99.472656 182.433594 99.207031 182.242188 98.996094 C 182.050781 98.785156 181.742188 98.632812 181.320312 98.53125 L 179.945312 98.183594 C 179.207031 98.007812 178.667969 97.726562 178.328125 97.339844 C 177.992188 96.957031 177.824219 96.480469 177.824219 95.914062 C 177.824219 95.46875 177.9375 95.082031 178.164062 94.753906 C 178.394531 94.425781 178.722656 94.175781 179.148438 93.996094 C 179.574219 93.816406 180.082031 93.726562 180.667969 93.726562 C 181.417969 93.726562 182.007812 93.832031 182.441406 94.042969 C 182.875 94.253906 183.210938 94.542969 183.453125 94.917969 L 182.777344 95.585938 L 182.625 95.585938 C 182.363281 95.285156 182.078125 95.070312 181.769531 94.9375 C 181.460938 94.804688 181.09375 94.738281 180.667969 94.738281 C 180.132812 94.738281 179.71875 94.835938 179.429688 95.023438 C 179.144531 95.214844 179.003906 95.496094 179.003906 95.859375 C 179.003906 96.191406 179.101562 96.460938 179.304688 96.664062 C 179.507812 96.867188 179.863281 97.027344 180.367188 97.148438 L 181.722656 97.476562 C 182.433594 97.644531 182.945312 97.921875 183.261719 98.3125 C 183.578125 98.703125 183.734375 99.191406 183.734375 99.777344 C 183.734375 100.253906 183.621094 100.679688 183.394531 101.046875 C 183.167969 101.414062 182.824219 101.699219 182.367188 101.90625 C 181.90625 102.109375 181.34375 102.210938 180.6875 102.210938 Z M 180.6875 102.210938 " fill-opacity="1" fill-rule="nonzero"/><path fill="#0d9488" d="M 191.601562 102.210938 C 190.796875 102.210938 190.167969 102 189.71875 101.578125 C 189.261719 101.15625 189.039062 100.558594 189.039062 99.777344 C 189.039062 99.292969 189.136719 98.886719 189.335938 98.554688 C 189.535156 98.222656 189.84375 97.949219 190.265625 97.738281 C 190.6875 97.527344 191.234375 97.367188 191.910156 97.253906 C 192.503906 97.15625 192.953125 97.046875 193.261719 96.921875 C 193.570312 96.796875 193.777344 96.65625 193.882812 96.503906 C 193.992188 96.351562 194.046875 96.160156 194.046875 95.925781 C 194.046875 95.554688 193.917969 95.273438 193.660156 95.078125 C 193.40625 94.878906 193 94.777344 192.4375 94.777344 C 191.90625 94.777344 191.453125 94.882812 191.074219 95.089844 C 190.699219 95.292969 190.355469 95.597656 190.039062 96 L 189.890625 96 L 189.296875 95.164062 C 189.640625 94.722656 190.082031 94.375 190.613281 94.117188 C 191.144531 93.855469 191.753906 93.726562 192.4375 93.726562 C 193.402344 93.726562 194.113281 93.9375 194.566406 94.363281 C 195.023438 94.785156 195.253906 95.367188 195.253906 96.113281 L 195.253906 100.441406 C 195.253906 100.898438 195.445312 101.128906 195.832031 101.128906 C 195.957031 101.128906 196.078125 101.105469 196.199219 101.058594 L 196.304688 101.085938 L 196.445312 101.921875 C 196.355469 101.984375 196.238281 102.03125 196.089844 102.0625 C 195.945312 102.09375 195.796875 102.109375 195.644531 102.109375 C 195.195312 102.109375 194.855469 102.015625 194.625 101.816406 C 194.394531 101.617188 194.25 101.328125 194.1875 100.941406 L 194.03125 100.929688 C 193.796875 101.359375 193.484375 101.679688 193.085938 101.894531 C 192.691406 102.105469 192.199219 102.210938 191.601562 102.210938 Z M 191.863281 101.246094 C 192.320312 101.246094 192.714844 101.140625 193.046875 100.929688 C 193.382812 100.71875 193.636719 100.421875 193.8125 100.046875 C 193.992188 99.667969 194.082031 99.230469 194.082031 98.726562 L 194.082031 97.691406 L 193.941406 97.65625 C 193.757812 97.785156 193.535156 97.894531 193.273438 97.984375 C 193.011719 98.070312 192.648438 98.148438 192.179688 98.214844 C 191.703125 98.28125 191.324219 98.378906 191.046875 98.511719 C 190.765625 98.644531 190.566406 98.816406 190.449219 99.019531 C 190.332031 99.222656 190.273438 99.476562 190.273438 99.777344 C 190.273438 100.253906 190.414062 100.621094 190.695312 100.871094 C 190.976562 101.121094 191.367188 101.246094 191.863281 101.246094 Z M 191.863281 101.246094 " fill-opacity="1" fill-rule="nonzero"/><path fill="#0d9488" d="M 198.101562 102.050781 L 198.101562 93.882812 L 199.25 93.882812 L 199.25 95.164062 L 199.40625 95.199219 C 199.675781 94.722656 200.019531 94.359375 200.441406 94.105469 C 200.867188 93.851562 201.382812 93.726562 201.988281 93.726562 C 202.96875 93.726562 203.679688 93.976562 204.121094 94.480469 C 204.566406 94.980469 204.789062 95.75 204.789062 96.792969 L 204.789062 102.050781 L 203.585938 102.050781 L 203.585938 96.820312 C 203.585938 96.328125 203.519531 95.9375 203.390625 95.640625 C 203.265625 95.339844 203.070312 95.121094 202.804688 94.984375 C 202.542969 94.847656 202.199219 94.777344 201.765625 94.777344 C 201.03125 94.777344 200.4375 95.023438 199.984375 95.511719 C 199.53125 95.996094 199.308594 96.777344 199.308594 97.863281 L 199.308594 102.050781 Z M 198.101562 102.050781 " fill-opacity="1" fill-rule="nonzero"/><path fill="#0d9488" d="M 210.320312 102.210938 C 209.664062 102.210938 209.085938 102.054688 208.582031 101.742188 C 208.082031 101.425781 207.691406 100.953125 207.40625 100.320312 C 207.121094 99.6875 206.980469 98.90625 206.980469 97.972656 C 206.980469 97.039062 207.128906 96.253906 207.425781 95.621094 C 207.71875 94.988281 208.128906 94.511719 208.648438 94.199219 C 209.167969 93.882812 209.773438 93.726562 210.460938 93.726562 C 211.003906 93.726562 211.492188 93.828125 211.925781 94.035156 C 212.359375 94.238281 212.734375 94.578125 213.046875 95.046875 L 213.199219 95.019531 L 213.199219 90.601562 L 214.410156 90.601562 L 214.410156 102.050781 L 213.199219 102.050781 L 213.199219 100.859375 L 213.046875 100.828125 C 212.777344 101.234375 212.414062 101.566406 211.960938 101.824219 C 211.503906 102.082031 210.957031 102.210938 210.320312 102.210938 Z M 210.695312 101.128906 C 211.457031 101.128906 212.0625 100.867188 212.515625 100.347656 C 212.972656 99.828125 213.199219 99.035156 213.199219 97.972656 C 213.199219 96.90625 212.972656 96.113281 212.515625 95.59375 C 212.0625 95.070312 211.457031 94.808594 210.695312 94.808594 C 209.910156 94.808594 209.304688 95.0625 208.882812 95.574219 C 208.460938 96.082031 208.25 96.882812 208.25 97.972656 C 208.25 100.078125 209.066406 101.128906 210.695312 101.128906 Z M 210.695312 101.128906 " fill-opacity="1" fill-rule="nonzero"/><path fill="#0d9488" d="M 223.28125 102.210938 C 222.765625 102.210938 222.289062 102.140625 221.855469 102.003906 C 221.417969 101.867188 221.046875 101.683594 220.75 101.445312 C 220.445312 101.207031 220.234375 100.941406 220.109375 100.648438 L 220.820312 99.90625 L 220.976562 99.90625 C 221.242188 100.3125 221.5625 100.617188 221.9375 100.824219 C 222.3125 101.027344 222.761719 101.128906 223.28125 101.128906 C 223.882812 101.128906 224.339844 101.011719 224.652344 100.777344 C 224.96875 100.542969 225.125 100.214844 225.125 99.792969 C 225.125 99.472656 225.027344 99.207031 224.839844 98.996094 C 224.648438 98.785156 224.339844 98.632812 223.914062 98.53125 L 222.539062 98.183594 C 221.800781 98.007812 221.261719 97.726562 220.925781 97.339844 C 220.585938 96.957031 220.421875 96.480469 220.421875 95.914062 C 220.421875 95.46875 220.535156 95.082031 220.761719 94.753906 C 220.988281 94.425781 221.316406 94.175781 221.742188 93.996094 C 222.167969 93.816406 222.675781 93.726562 223.265625 93.726562 C 224.011719 93.726562 224.605469 93.832031 225.039062 94.042969 C 225.46875 94.253906 225.808594 94.542969 226.050781 94.917969 L 225.371094 95.585938 L 225.21875 95.585938 C 224.957031 95.285156 224.671875 95.070312 224.363281 94.9375 C 224.054688 94.804688 223.6875 94.738281 223.265625 94.738281 C 222.726562 94.738281 222.3125 94.835938 222.023438 95.023438 C 221.738281 95.214844 221.597656 95.496094 221.597656 95.859375 C 221.597656 96.191406 221.699219 96.460938 221.902344 96.664062 C 222.101562 96.867188 222.457031 97.027344 222.960938 97.148438 L 224.316406 97.476562 C 225.027344 97.644531 225.539062 97.921875 225.855469 98.3125 C 226.171875 98.703125 226.332031 99.191406 226.332031 99.777344 C 226.332031 100.253906 226.214844 100.679688 225.992188 101.046875 C 225.765625 101.414062 225.421875 101.699219 224.960938 101.90625 C 224.5 102.109375 223.941406 102.210938 223.28125 102.210938 Z M 223.28125 102.210938 " fill-opacity="1" fill-rule="nonzero"/><path fill="#0d9488" d="M 230.480469 102.210938 C 229.675781 102.210938 229.046875 102 228.59375 101.578125 C 228.140625 101.15625 227.914062 100.558594 227.914062 99.777344 C 227.914062 99.292969 228.015625 98.886719 228.214844 98.554688 C 228.414062 98.222656 228.722656 97.949219 229.144531 97.738281 C 229.566406 97.527344 230.113281 97.367188 230.789062 97.253906 C 231.382812 97.15625 231.832031 97.046875 232.140625 96.921875 C 232.449219 96.796875 232.65625 96.65625 232.761719 96.503906 C 232.867188 96.351562 232.925781 96.160156 232.925781 95.925781 C 232.925781 95.554688 232.796875 95.273438 232.539062 95.078125 C 232.285156 94.878906 231.878906 94.777344 231.316406 94.777344 C 230.785156 94.777344 230.328125 94.882812 229.953125 95.089844 C 229.578125 95.292969 229.230469 95.597656 228.917969 96 L 228.769531 96 L 228.171875 95.164062 C 228.519531 94.722656 228.957031 94.375 229.488281 94.117188 C 230.023438 93.855469 230.632812 93.726562 231.316406 93.726562 C 232.277344 93.726562 232.988281 93.9375 233.445312 94.363281 C 233.902344 94.785156 234.128906 95.367188 234.128906 96.113281 L 234.128906 100.441406 C 234.128906 100.898438 234.324219 101.128906 234.710938 101.128906 C 234.832031 101.128906 234.957031 101.105469 235.078125 101.058594 L 235.183594 101.085938 L 235.324219 101.921875 C 235.234375 101.984375 235.113281 102.03125 234.964844 102.0625 C 234.820312 102.09375 234.675781 102.109375 234.523438 102.109375 C 234.074219 102.109375 233.734375 102.015625 233.503906 101.816406 C 233.273438 101.617188 233.125 101.328125 233.066406 100.941406 L 232.90625 100.929688 C 232.675781 101.359375 232.363281 101.679688 231.964844 101.894531 C 231.570312 102.105469 231.074219 102.210938 230.480469 102.210938 Z M 230.742188 101.246094 C 231.199219 101.246094 231.59375 101.140625 231.925781 100.929688 C 232.257812 100.71875 232.515625 100.421875 232.691406 100.046875 C 232.867188 99.667969 232.960938 99.230469 232.960938 98.726562 L 232.960938 97.691406 L 232.820312 97.65625 C 232.636719 97.785156 232.414062 97.894531 232.152344 97.984375 C 231.890625 98.070312 231.527344 98.148438 231.058594 98.214844 C 230.582031 98.28125 230.203125 98.378906 229.921875 98.511719 C 229.644531 98.644531 229.445312 98.816406 229.324219 99.019531 C 229.207031 99.222656 229.152344 99.476562 229.152344 99.777344 C 229.152344 100.253906 229.289062 100.621094 229.570312 100.871094 C 229.855469 101.121094 230.246094 101.246094 230.742188 101.246094 Z M 230.742188 101.246094 " fill-opacity="1" fill-rule="nonzero"/><path fill="#0d9488" d="M 238.8125 102.210938 C 238.234375 102.210938 237.777344 102.046875 237.449219 101.71875 C 237.117188 101.386719 236.949219 100.894531 236.949219 100.242188 L 236.949219 90.601562 L 238.15625 90.601562 L 238.15625 100.160156 C 238.15625 100.503906 238.21875 100.753906 238.347656 100.90625 C 238.480469 101.054688 238.683594 101.128906 238.964844 101.128906 C 239.128906 101.128906 239.300781 101.101562 239.476562 101.046875 L 239.578125 101.074219 L 239.71875 102.023438 C 239.632812 102.082031 239.503906 102.125 239.335938 102.15625 C 239.171875 102.191406 239 102.210938 238.8125 102.210938 Z M 238.8125 102.210938 " fill-opacity="1" fill-rule="nonzero"/><path fill="#0d9488" d="M 244.6875 102.210938 C 243.917969 102.210938 243.25 102.050781 242.675781 101.722656 C 242.105469 101.398438 241.664062 100.914062 241.359375 100.277344 C 241.050781 99.644531 240.894531 98.875 240.894531 97.972656 C 240.894531 97.070312 241.050781 96.296875 241.359375 95.664062 C 241.664062 95.023438 242.105469 94.542969 242.675781 94.21875 C 243.25 93.890625 243.917969 93.726562 244.6875 93.726562 C 245.460938 93.726562 246.128906 93.890625 246.699219 94.21875 C 247.269531 94.542969 247.707031 95.023438 248.015625 95.664062 C 248.324219 96.296875 248.480469 97.070312 248.480469 97.972656 C 248.480469 98.875 248.324219 99.644531 248.015625 100.277344 C 247.707031 100.914062 247.269531 101.398438 246.699219 101.722656 C 246.128906 102.050781 245.460938 102.210938 244.6875 102.210938 Z M 244.6875 101.128906 C 245.503906 101.128906 246.125 100.871094 246.554688 100.359375 C 246.988281 99.847656 247.203125 99.050781 247.203125 97.972656 C 247.203125 96.890625 246.988281 96.09375 246.554688 95.582031 C 246.125 95.066406 245.503906 94.808594 244.6875 94.808594 C 243.871094 94.808594 243.25 95.066406 242.816406 95.585938 C 242.382812 96.101562 242.164062 96.898438 242.164062 97.972656 C 242.164062 99.050781 242.382812 99.847656 242.816406 100.359375 C 243.25 100.871094 243.871094 101.128906 244.6875 101.128906 Z M 244.6875 101.128906 " fill-opacity="1" fill-rule="nonzero"/><path fill="#0d9488" d="M 250.796875 102.050781 L 250.796875 93.882812 L 251.945312 93.882812 L 251.945312 95.164062 L 252.101562 95.199219 C 252.371094 94.722656 252.71875 94.359375 253.136719 94.105469 C 253.5625 93.851562 254.078125 93.726562 254.683594 93.726562 C 255.667969 93.726562 256.378906 93.976562 256.820312 94.480469 C 257.261719 94.980469 257.484375 95.75 257.484375 96.792969 L 257.484375 102.050781 L 256.28125 102.050781 L 256.28125 96.820312 C 256.28125 96.328125 256.214844 95.9375 256.085938 95.640625 C 255.960938 95.339844 255.765625 95.121094 255.503906 94.984375 C 255.242188 94.847656 254.894531 94.777344 254.460938 94.777344 C 253.726562 94.777344 253.132812 95.023438 252.683594 95.511719 C 252.226562 95.996094 252.003906 96.777344 252.003906 97.863281 L 252.003906 102.050781 Z M 250.796875 102.050781 " fill-opacity="1" fill-rule="nonzero"/><path fill="#0d9488" d="M 262.507812 102.210938 C 261.992188 102.210938 261.515625 102.140625 261.082031 102.003906 C 260.644531 101.867188 260.273438 101.683594 259.972656 101.445312 C 259.671875 101.207031 259.460938 100.941406 259.335938 100.648438 L 260.042969 99.90625 L 260.203125 99.90625 C 260.46875 100.3125 260.789062 100.617188 261.160156 100.824219 C 261.539062 101.027344 261.988281 101.128906 262.507812 101.128906 C 263.109375 101.128906 263.5625 101.011719 263.878906 100.777344 C 264.191406 100.542969 264.351562 100.214844 264.351562 99.792969 C 264.351562 99.472656 264.253906 99.207031 264.0625 98.996094 C 263.871094 98.785156 263.5625 98.632812 263.140625 98.53125 L 261.765625 98.183594 C 261.027344 98.007812 260.488281 97.726562 260.148438 97.339844 C 259.8125 96.957031 259.648438 96.480469 259.648438 95.914062 C 259.648438 95.46875 259.757812 95.082031 259.984375 94.753906 C 260.214844 94.425781 260.542969 94.175781 260.96875 93.996094 C 261.394531 93.816406 261.902344 93.726562 262.492188 93.726562 C 263.238281 93.726562 263.832031 93.832031 264.261719 94.042969 C 264.695312 94.253906 265.03125 94.542969 265.277344 94.917969 L 264.597656 95.585938 L 264.445312 95.585938 C 264.183594 95.285156 263.898438 95.070312 263.589844 94.9375 C 263.28125 94.804688 262.914062 94.738281 262.492188 94.738281 C 261.953125 94.738281 261.539062 94.835938 261.25 95.023438 C 260.964844 95.214844 260.824219 95.496094 260.824219 95.859375 C 260.824219 96.191406 260.921875 96.460938 261.125 96.664062 C 261.328125 96.867188 261.683594 97.027344 262.1875 97.148438 L 263.542969 97.476562 C 264.253906 97.644531 264.765625 97.921875 265.082031 98.3125 C 265.398438 98.703125 265.554688 99.191406 265.554688 99.777344 C 265.554688 100.253906 265.441406 100.679688 265.21875 101.046875 C 264.992188 101.414062 264.648438 101.699219 264.1875 101.90625 C 263.726562 102.109375 263.167969 102.210938 262.507812 102.210938 Z M 262.507812 102.210938 " fill-opacity="1" fill-rule="nonzero"/><path fill="#0d9488" d="M 271.472656 102.050781 L 271.472656 93.882812 L 272.621094 93.882812 L 272.621094 95.089844 L 272.777344 95.117188 C 273.054688 94.660156 273.386719 94.316406 273.777344 94.082031 C 274.171875 93.84375 274.640625 93.726562 275.1875 93.726562 C 275.820312 93.726562 276.308594 93.847656 276.65625 94.089844 C 277.003906 94.328125 277.273438 94.710938 277.464844 95.246094 L 277.617188 95.246094 C 277.902344 94.746094 278.25 94.367188 278.660156 94.113281 C 279.070312 93.855469 279.578125 93.726562 280.179688 93.726562 C 281.023438 93.726562 281.648438 93.953125 282.058594 94.410156 C 282.472656 94.863281 282.679688 95.554688 282.679688 96.480469 L 282.679688 102.050781 L 281.472656 102.050781 L 281.472656 96.511719 C 281.472656 95.917969 281.347656 95.480469 281.097656 95.199219 C 280.847656 94.917969 280.445312 94.777344 279.894531 94.777344 C 279.242188 94.777344 278.707031 95.015625 278.296875 95.492188 C 277.886719 95.964844 277.679688 96.746094 277.679688 97.832031 L 277.679688 102.050781 L 276.46875 102.050781 L 276.46875 96.511719 C 276.46875 95.917969 276.34375 95.480469 276.097656 95.199219 C 275.84375 94.917969 275.445312 94.777344 274.894531 94.777344 C 274.242188 94.777344 273.710938 95.011719 273.296875 95.46875 C 272.886719 95.929688 272.679688 96.675781 272.679688 97.703125 L 272.679688 102.050781 Z M 271.472656 102.050781 " fill-opacity="1" fill-rule="nonzero"/><path fill="#0d9488" d="M 287.34375 102.210938 C 286.539062 102.210938 285.910156 102 285.460938 101.578125 C 285.007812 101.15625 284.78125 100.558594 284.78125 99.777344 C 284.78125 99.292969 284.878906 98.886719 285.078125 98.554688 C 285.277344 98.222656 285.589844 97.949219 286.007812 97.738281 C 286.429688 97.527344 286.976562 97.367188 287.652344 97.253906 C 288.246094 97.15625 288.695312 97.046875 289.003906 96.921875 C 289.3125 96.796875 289.519531 96.65625 289.625 96.503906 C 289.734375 96.351562 289.789062 96.160156 289.789062 95.925781 C 289.789062 95.554688 289.660156 95.273438 289.402344 95.078125 C 289.148438 94.878906 288.742188 94.777344 288.179688 94.777344 C 287.648438 94.777344 287.195312 94.882812 286.816406 95.089844 C 286.441406 95.292969 286.097656 95.597656 285.78125 96 L 285.636719 96 L 285.039062 95.164062 C 285.386719 94.722656 285.824219 94.375 286.355469 94.117188 C 286.886719 93.855469 287.496094 93.726562 288.179688 93.726562 C 289.144531 93.726562 289.855469 93.9375 290.308594 94.363281 C 290.765625 94.785156 290.996094 95.367188 290.996094 96.113281 L 290.996094 100.441406 C 290.996094 100.898438 291.1875 101.128906 291.574219 101.128906 C 291.699219 101.128906 291.820312 101.105469 291.941406 101.058594 L 292.046875 101.085938 L 292.1875 101.921875 C 292.097656 101.984375 291.980469 102.03125 291.832031 102.0625 C 291.6875 102.09375 291.539062 102.109375 291.386719 102.109375 C 290.9375 102.109375 290.597656 102.015625 290.367188 101.816406 C 290.136719 101.617188 289.992188 101.328125 289.929688 100.941406 L 289.773438 100.929688 C 289.539062 101.359375 289.226562 101.679688 288.828125 101.894531 C 288.433594 102.105469 287.941406 102.210938 287.34375 102.210938 Z M 287.605469 101.246094 C 288.0625 101.246094 288.457031 101.140625 288.789062 100.929688 C 289.125 100.71875 289.378906 100.421875 289.554688 100.046875 C 289.734375 99.667969 289.824219 99.230469 289.824219 98.726562 L 289.824219 97.691406 L 289.683594 97.65625 C 289.5 97.785156 289.277344 97.894531 289.015625 97.984375 C 288.753906 98.070312 288.390625 98.148438 287.921875 98.214844 C 287.445312 98.28125 287.070312 98.378906 286.789062 98.511719 C 286.507812 98.644531 286.3125 98.816406 286.191406 99.019531 C 286.074219 99.222656 286.015625 99.476562 286.015625 99.777344 C 286.015625 100.253906 286.15625 100.621094 286.4375 100.871094 C 286.71875 101.121094 287.109375 101.246094 287.605469 101.246094 Z M 287.605469 101.246094 " fill-opacity="1" fill-rule="nonzero"/><path fill="#0d9488" d="M 293.84375 102.050781 L 293.84375 93.882812 L 294.992188 93.882812 L 294.992188 95.164062 L 295.148438 95.199219 C 295.417969 94.722656 295.765625 94.359375 296.183594 94.105469 C 296.609375 93.851562 297.125 93.726562 297.730469 93.726562 C 298.710938 93.726562 299.421875 93.976562 299.867188 94.480469 C 300.308594 94.980469 300.53125 95.75 300.53125 96.792969 L 300.53125 102.050781 L 299.328125 102.050781 L 299.328125 96.820312 C 299.328125 96.328125 299.261719 95.9375 299.132812 95.640625 C 299.007812 95.339844 298.8125 95.121094 298.550781 94.984375 C 298.285156 94.847656 297.941406 94.777344 297.507812 94.777344 C 296.773438 94.777344 296.179688 95.023438 295.730469 95.511719 C 295.273438 95.996094 295.050781 96.777344 295.050781 97.863281 L 295.050781 102.050781 Z M 293.84375 102.050781 " fill-opacity="1" fill-rule="nonzero"/><path fill="#0d9488" d="M 305.199219 102.210938 C 304.394531 102.210938 303.765625 102 303.3125 101.578125 C 302.859375 101.15625 302.632812 100.558594 302.632812 99.777344 C 302.632812 99.292969 302.734375 98.886719 302.933594 98.554688 C 303.132812 98.222656 303.441406 97.949219 303.863281 97.738281 C 304.285156 97.527344 304.832031 97.367188 305.507812 97.253906 C 306.101562 97.15625 306.550781 97.046875 306.859375 96.921875 C 307.167969 96.796875 307.375 96.65625 307.480469 96.503906 C 307.589844 96.351562 307.644531 96.160156 307.644531 95.925781 C 307.644531 95.554688 307.515625 95.273438 307.257812 95.078125 C 307.003906 94.878906 306.597656 94.777344 306.035156 94.777344 C 305.503906 94.777344 305.046875 94.882812 304.671875 95.089844 C 304.296875 95.292969 303.953125 95.597656 303.636719 96 L 303.488281 96 L 302.890625 95.164062 C 303.238281 94.722656 303.679688 94.375 304.207031 94.117188 C 304.742188 93.855469 305.351562 93.726562 306.035156 93.726562 C 306.996094 93.726562 307.707031 93.9375 308.164062 94.363281 C 308.621094 94.785156 308.847656 95.367188 308.847656 96.113281 L 308.847656 100.441406 C 308.847656 100.898438 309.042969 101.128906 309.429688 101.128906 C 309.550781 101.128906 309.675781 101.105469 309.796875 101.058594 L 309.902344 101.085938 L 310.042969 101.921875 C 309.953125 101.984375 309.832031 102.03125 309.6875 102.0625 C 309.539062 102.09375 309.394531 102.109375 309.242188 102.109375 C 308.792969 102.109375 308.453125 102.015625 308.222656 101.816406 C 307.992188 101.617188 307.84375 101.328125 307.785156 100.941406 L 307.625 100.929688 C 307.394531 101.359375 307.082031 101.679688 306.683594 101.894531 C 306.289062 102.105469 305.792969 102.210938 305.199219 102.210938 Z M 305.460938 101.246094 C 305.917969 101.246094 306.3125 101.140625 306.644531 100.929688 C 306.976562 100.71875 307.234375 100.421875 307.410156 100.046875 C 307.589844 99.667969 307.679688 99.230469 307.679688 98.726562 L 307.679688 97.691406 L 307.539062 97.65625 C 307.355469 97.785156 307.132812 97.894531 306.871094 97.984375 C 306.609375 98.070312 306.246094 98.148438 305.777344 98.214844 C 305.300781 98.28125 304.921875 98.378906 304.640625 98.511719 C 304.363281 98.644531 304.164062 98.816406 304.042969 99.019531 C 303.929688 99.222656 303.871094 99.476562 303.871094 99.777344 C 303.871094 100.253906 304.011719 100.621094 304.289062 100.871094 C 304.574219 101.121094 304.964844 101.246094 305.460938 101.246094 Z M 305.460938 101.246094 " fill-opacity="1" fill-rule="nonzero"/><path fill="#0d9488" d="M 314.484375 105.515625 C 313.195312 105.515625 312.253906 105.300781 311.664062 104.871094 C 311.070312 104.441406 310.773438 103.875 310.773438 103.164062 C 310.773438 102.703125 310.910156 102.335938 311.1875 102.0625 C 311.464844 101.792969 311.867188 101.601562 312.394531 101.484375 L 312.394531 101.328125 C 312.140625 101.183594 311.953125 101.015625 311.828125 100.824219 C 311.703125 100.632812 311.640625 100.402344 311.640625 100.132812 C 311.640625 99.816406 311.738281 99.5625 311.9375 99.367188 C 312.136719 99.167969 312.4375 99.015625 312.832031 98.910156 L 312.832031 98.757812 C 311.945312 98.289062 311.5 97.527344 311.5 96.46875 C 311.5 95.9375 311.621094 95.460938 311.863281 95.046875 C 312.105469 94.632812 312.449219 94.308594 312.898438 94.078125 C 313.34375 93.84375 313.871094 93.726562 314.464844 93.726562 C 315.152344 93.726562 315.726562 93.878906 316.1875 94.183594 C 316.359375 93.988281 316.488281 93.78125 316.574219 93.5625 C 316.660156 93.34375 316.71875 93.097656 316.742188 92.820312 L 316.894531 92.71875 L 317.890625 92.957031 C 317.839844 93.371094 317.714844 93.722656 317.515625 94.011719 C 317.316406 94.296875 317.03125 94.53125 316.667969 94.71875 L 316.667969 94.878906 C 316.925781 95.085938 317.121094 95.328125 317.246094 95.609375 C 317.375 95.886719 317.4375 96.210938 317.4375 96.582031 C 317.4375 97.09375 317.3125 97.550781 317.0625 97.960938 C 316.820312 98.371094 316.46875 98.695312 316.023438 98.933594 C 315.574219 99.167969 315.054688 99.285156 314.464844 99.285156 C 314.398438 99.285156 314.277344 99.277344 314.097656 99.265625 C 313.898438 99.257812 313.753906 99.253906 313.660156 99.253906 C 313.402344 99.253906 313.199219 99.324219 313.042969 99.453125 C 312.890625 99.585938 312.816406 99.757812 312.816406 99.964844 C 312.816406 100.21875 312.898438 100.410156 313.0625 100.53125 C 313.230469 100.652344 313.503906 100.722656 313.882812 100.734375 L 315.816406 100.800781 C 316.652344 100.832031 317.269531 101.027344 317.671875 101.386719 C 318.074219 101.742188 318.277344 102.246094 318.277344 102.90625 C 318.277344 103.394531 318.144531 103.832031 317.882812 104.222656 C 317.621094 104.617188 317.207031 104.929688 316.636719 105.164062 C 316.070312 105.398438 315.351562 105.515625 314.484375 105.515625 Z M 314.464844 98.242188 C 315.042969 98.242188 315.488281 98.09375 315.804688 97.792969 C 316.121094 97.492188 316.28125 97.070312 316.28125 96.527344 C 316.28125 95.964844 316.125 95.535156 315.8125 95.230469 C 315.5 94.921875 315.050781 94.765625 314.464844 94.765625 C 313.882812 94.765625 313.4375 94.917969 313.132812 95.222656 C 312.828125 95.523438 312.675781 95.960938 312.675781 96.527344 C 312.675781 97.074219 312.828125 97.5 313.132812 97.796875 C 313.4375 98.09375 313.882812 98.242188 314.464844 98.242188 Z M 314.484375 104.480469 C 315.082031 104.480469 315.574219 104.414062 315.957031 104.28125 C 316.339844 104.148438 316.613281 103.972656 316.785156 103.75 C 316.953125 103.53125 317.039062 103.285156 317.039062 103.015625 C 317.039062 102.773438 316.992188 102.578125 316.898438 102.433594 C 316.808594 102.28125 316.664062 102.171875 316.460938 102.097656 C 316.257812 102.027344 315.980469 101.980469 315.628906 101.957031 L 313.800781 101.863281 L 313.542969 101.863281 C 312.519531 101.878906 312.007812 102.277344 312.007812 103.058594 C 312.007812 104.007812 312.832031 104.480469 314.484375 104.480469 Z M 314.484375 104.480469 " fill-opacity="1" fill-rule="nonzero"/><path fill="#0d9488" d="M 326.425781 98.242188 L 320.816406 98.242188 C 320.851562 99.238281 321.085938 99.96875 321.527344 100.429688 C 321.96875 100.894531 322.578125 101.128906 323.347656 101.128906 C 323.929688 101.128906 324.398438 101.023438 324.753906 100.816406 C 325.105469 100.605469 325.386719 100.28125 325.589844 99.839844 L 325.75 99.839844 L 326.53125 100.300781 C 326.292969 100.894531 325.914062 101.363281 325.390625 101.699219 C 324.871094 102.039062 324.191406 102.210938 323.347656 102.210938 C 322.554688 102.210938 321.875 102.054688 321.308594 101.742188 C 320.742188 101.429688 320.304688 100.957031 319.996094 100.324219 C 319.691406 99.695312 319.539062 98.910156 319.539062 97.972656 C 319.539062 97.046875 319.699219 96.261719 320.027344 95.628906 C 320.347656 94.988281 320.789062 94.511719 321.347656 94.199219 C 321.910156 93.882812 322.550781 93.726562 323.273438 93.726562 C 324.316406 93.726562 325.136719 94.023438 325.726562 94.613281 C 326.3125 95.203125 326.609375 96.078125 326.613281 97.234375 C 326.613281 97.691406 326.605469 98 326.585938 98.15625 Z M 325.421875 97.234375 C 325.398438 96.371094 325.207031 95.742188 324.839844 95.347656 C 324.476562 94.949219 323.953125 94.75 323.273438 94.75 C 322.558594 94.75 321.996094 94.949219 321.585938 95.347656 C 321.179688 95.746094 320.933594 96.375 320.84375 97.234375 Z M 325.421875 97.234375 " fill-opacity="1" fill-rule="nonzero"/><path fill="#0d9488" d="M 328.773438 102.050781 L 328.773438 93.882812 L 329.921875 93.882812 L 329.921875 95.089844 L 330.078125 95.117188 C 330.355469 94.660156 330.691406 94.316406 331.082031 94.082031 C 331.472656 93.84375 331.945312 93.726562 332.492188 93.726562 C 333.121094 93.726562 333.609375 93.847656 333.960938 94.089844 C 334.304688 94.328125 334.574219 94.710938 334.765625 95.246094 L 334.917969 95.246094 C 335.203125 94.746094 335.550781 94.367188 335.960938 94.113281 C 336.371094 93.855469 336.878906 93.726562 337.480469 93.726562 C 338.324219 93.726562 338.949219 93.953125 339.359375 94.410156 C 339.773438 94.863281 339.980469 95.554688 339.980469 96.480469 L 339.980469 102.050781 L 338.773438 102.050781 L 338.773438 96.511719 C 338.773438 95.917969 338.648438 95.480469 338.402344 95.199219 C 338.148438 94.917969 337.75 94.777344 337.195312 94.777344 C 336.542969 94.777344 336.011719 95.015625 335.597656 95.492188 C 335.1875 95.964844 334.984375 96.746094 334.984375 97.832031 L 334.984375 102.050781 L 333.773438 102.050781 L 333.773438 96.511719 C 333.773438 95.917969 333.644531 95.480469 333.398438 95.199219 C 333.148438 94.917969 332.75 94.777344 332.199219 94.777344 C 331.546875 94.777344 331.011719 95.011719 330.601562 95.46875 C 330.1875 95.929688 329.980469 96.675781 329.980469 97.703125 L 329.980469 102.050781 Z M 328.773438 102.050781 " fill-opacity="1" fill-rule="nonzero"/><path fill="#0d9488" d="M 349.058594 98.242188 L 343.445312 98.242188 C 343.480469 99.238281 343.71875 99.96875 344.160156 100.429688 C 344.601562 100.894531 345.207031 101.128906 345.980469 101.128906 C 346.558594 101.128906 347.027344 101.023438 347.382812 100.816406 C 347.738281 100.605469 348.015625 100.28125 348.21875 99.839844 L 348.378906 99.839844 L 349.164062 100.300781 C 348.925781 100.894531 348.542969 101.363281 348.023438 101.699219 C 347.503906 102.039062 346.820312 102.210938 345.980469 102.210938 C 345.1875 102.210938 344.507812 102.054688 343.9375 101.742188 C 343.371094 101.429688 342.933594 100.957031 342.625 100.324219 C 342.324219 99.695312 342.171875 98.910156 342.171875 97.972656 C 342.171875 97.046875 342.332031 96.261719 342.65625 95.628906 C 342.980469 94.988281 343.417969 94.511719 343.976562 94.199219 C 344.539062 93.882812 345.179688 93.726562 345.902344 93.726562 C 346.949219 93.726562 347.765625 94.023438 348.355469 94.613281 C 348.941406 95.203125 349.238281 96.078125 349.246094 97.234375 C 349.246094 97.691406 349.234375 98 349.214844 98.15625 Z M 348.050781 97.234375 C 348.03125 96.371094 347.835938 95.742188 347.472656 95.347656 C 347.109375 94.949219 346.585938 94.75 345.902344 94.75 C 345.191406 94.75 344.628906 94.949219 344.21875 95.347656 C 343.8125 95.746094 343.5625 96.375 343.476562 97.234375 Z M 348.050781 97.234375 " fill-opacity="1" fill-rule="nonzero"/><path fill="#0d9488" d="M 351.40625 102.050781 L 351.40625 93.882812 L 352.550781 93.882812 L 352.550781 95.164062 L 352.710938 95.199219 C 352.980469 94.722656 353.324219 94.359375 353.746094 94.105469 C 354.171875 93.851562 354.683594 93.726562 355.289062 93.726562 C 356.273438 93.726562 356.984375 93.976562 357.425781 94.480469 C 357.871094 94.980469 358.09375 95.75 358.09375 96.792969 L 358.09375 102.050781 L 356.886719 102.050781 L 356.886719 96.820312 C 356.886719 96.328125 356.824219 95.9375 356.695312 95.640625 C 356.570312 95.339844 356.375 95.121094 356.109375 94.984375 C 355.847656 94.847656 355.5 94.777344 355.070312 94.777344 C 354.335938 94.777344 353.742188 95.023438 353.289062 95.511719 C 352.835938 95.996094 352.609375 96.777344 352.609375 97.863281 L 352.609375 102.050781 Z M 351.40625 102.050781 " fill-opacity="1" fill-rule="nonzero"/><path fill="#0d9488" d="M 364.910156 100.757812 L 365.296875 101.625 C 365.105469 101.816406 364.851562 101.960938 364.539062 102.058594 C 364.222656 102.160156 363.886719 102.210938 363.519531 102.210938 C 361.957031 102.210938 361.179688 101.421875 361.179688 99.839844 L 361.179688 94.867188 L 359.757812 94.867188 L 359.757812 93.878906 L 361.179688 93.878906 L 361.179688 92.152344 L 362.390625 91.953125 L 362.390625 93.878906 L 365.015625 93.878906 L 365.015625 94.867188 L 362.390625 94.867188 L 362.390625 99.71875 C 362.390625 100.65625 362.796875 101.128906 363.605469 101.128906 C 364.050781 101.128906 364.433594 101.003906 364.761719 100.757812 Z M 364.910156 100.757812 " fill-opacity="1" fill-rule="nonzero"/></svg>